<?xml version="1.0" encoding="UTF-8"?>
<svg width="18px" height="18px" viewBox="0 0 18 18" version="1.1" xmlns="http://www.w3.org/2000/svg" xmlns:xlink="http://www.w3.org/1999/xlink">
    <!-- Generator: Sketch 56.2 (81672) - https://sketch.com -->
    <title>Fill 1</title>
    <desc>Created with Sketch.</desc>
    <g id="Page-1" stroke="none" stroke-width="1" fill="none" fill-rule="evenodd">
        <g id="Accountant-signup" transform="translate(-913.000000, -1123.000000)" fill="#43495A">
            <g id="Group-2" transform="translate(502.000000, 1085.000000)">
                <path d="M420,38 C415.029943,38 411,42.0299429 411,47 C411,51.9700571 415.029943,56 420,56 C424.970057,56 429,51.9700571 429,47 C429,42.0299429 424.970057,38 420,38 Z M420.811605,51.1264229 C420.791515,51.8416091 420.261154,52.2835657 419.57411,52.2634674 C418.915186,52.2433774 418.396869,51.7732914 418.416967,51.0540937 C418.437057,50.3389074 418.983483,49.884896 419.642407,49.9049943 C420.333483,49.9250823 420.835714,50.4112366 420.811605,51.1264229 Z M422.768297,46.0117486 C422.599548,46.2487931 422.221879,46.5541554 421.747769,46.9238034 L421.221429,47.285408 C420.964286,47.4822827 420.803582,47.7153097 420.719198,47.980496 C420.675002,48.1211202 420.642859,48.4867383 420.634822,48.7318263 C420.630804,48.7800416 420.602679,48.888523 420.454018,48.888523 L418.883039,48.888523 C418.718307,48.888523 418.698217,48.7920944 418.702235,48.7438791 C418.726343,48.0769122 418.822771,47.5264619 419.100004,47.0845054 C419.473664,46.4898677 420.526345,45.8630768 420.526345,45.8630768 C420.687059,45.7425406 420.811609,45.6139774 420.908048,45.4733511 C421.084834,45.2322745 421.229476,44.9630768 421.229476,44.6738014 C421.229476,44.3403179 421.14912,44.0229008 420.936169,43.7577351 C420.687069,43.4483614 420.417872,43.2996917 419.899554,43.2996917 C419.38928,43.2996917 419.091961,43.5568345 418.879026,43.8943294 C418.66607,44.2318242 418.702239,44.6295934 418.702239,44.9911979 L416.745547,44.9911979 C416.745547,43.6251317 417.10314,42.7532322 417.858502,42.2389465 C418.368776,41.8893968 419.019656,41.7367157 419.77903,41.7367157 C420.775469,41.7367157 421.566975,41.9215376 422.266116,42.4519019 C422.912984,42.9420779 423.254511,43.6331545 423.254511,44.5652048 C423.254511,45.1397648 423.053619,45.6218974 422.768347,46.0116231 L422.768297,46.0117486 Z" id="Fill-1"></path>
            </g>
        </g>
    </g>
</svg>