<?xml version="1.0" encoding="UTF-8"?>
<svg width="247px" height="55px" viewBox="0 0 247 55" version="1.1" xmlns="http://www.w3.org/2000/svg" xmlns:xlink="http://www.w3.org/1999/xlink">
    <!-- Generator: Sketch 56.2 (81672) - https://sketch.com -->
    <title>Title</title>
    <desc>Created with Sketch.</desc>
    <g id="Page-1" stroke="none" stroke-width="1" fill="none" fill-rule="evenodd">
        <g id="side-banner-title" transform="translate(0.000000, -1.000000)">
            <g id="Title">
                <rect id="Rectangle" fill="#FFFFFF" x="0" y="1" width="247" height="27"></rect>
                <rect id="Rectangle" fill="#FFFFFF" x="0" y="29" width="234" height="27"></rect>
                <path d="M8.242,8.148 L17.278,8.148 L17.278,10.524 L11.068,10.524 L11.068,13.494 L16.45,13.494 L16.45,15.69 L11.068,15.69 L11.068,21 L8.242,21 L8.242,8.148 Z M21.2225714,10.254 L18.6665714,10.254 L18.6665714,8.148 L21.2225714,8.148 L21.2225714,10.254 Z M18.6665714,11.694 L21.2225714,11.694 L21.2225714,21 L18.6665714,21 L18.6665714,11.694 Z M23.1871429,11.694 L25.6171429,11.694 L25.6171429,12.99 L25.6711429,12.99 C25.9951445,12.4499973 26.4151403,12.0570012 26.9311429,11.811 C27.4471454,11.5649988 27.9751402,11.442 28.5151429,11.442 C29.1991463,11.442 29.7601407,11.5349991 30.1981429,11.721 C30.636145,11.9070009 30.9811416,12.1649983 31.2331429,12.495 C31.4851441,12.8250016 31.6621423,13.2269976 31.7641429,13.701 C31.8661434,14.1750024 31.9171429,14.6999971 31.9171429,15.276 L31.9171429,21 L29.3611429,21 L29.3611429,15.744 C29.3611429,14.9759962 29.2411441,14.4030019 29.0011429,14.025 C28.7611417,13.6469981 28.3351459,13.458 27.7231429,13.458 C27.0271394,13.458 26.5231444,13.6649979 26.2111429,14.079 C25.8991413,14.4930021 25.7431429,15.1739953 25.7431429,16.122 L25.7431429,21 L23.1871429,21 L23.1871429,11.694 Z M35.7897143,17.976 C35.7897143,18.2520014 35.8467137,18.488999 35.9607143,18.687 C36.0747149,18.885001 36.2217134,19.0469994 36.4017143,19.173 C36.5817152,19.2990006 36.7887131,19.3919997 37.0227143,19.452 C37.2567155,19.5120003 37.499713,19.542 37.7517143,19.542 C37.9317152,19.542 38.1207133,19.5210002 38.3187143,19.479 C38.5167153,19.4369998 38.6967135,19.3710004 38.8587143,19.281 C39.0207151,19.1909996 39.1557137,19.0710007 39.2637143,18.921 C39.3717148,18.7709993 39.4257143,18.5820011 39.4257143,18.354 C39.4257143,17.9699981 39.1707168,17.682001 38.6607143,17.49 C38.1507117,17.297999 37.4397188,17.106001 36.5277143,16.914 C36.1557124,16.8299996 35.7927161,16.7310006 35.4387143,16.617 C35.0847125,16.5029994 34.7697157,16.3530009 34.4937143,16.167 C34.2177129,15.9809991 33.9957151,15.7470014 33.8277143,15.465 C33.6597134,15.1829986 33.5757143,14.838002 33.5757143,14.43 C33.5757143,13.829997 33.6927131,13.3380019 33.9267143,12.954 C34.1607155,12.5699981 34.4697124,12.2670011 34.8537143,12.045 C35.2377162,11.8229989 35.6697119,11.6670005 36.1497143,11.577 C36.6297167,11.4869996 37.1217118,11.442 37.6257143,11.442 C38.1297168,11.442 38.6187119,11.4899995 39.0927143,11.586 C39.5667167,11.6820005 39.9897124,11.8439989 40.3617143,12.072 C40.7337161,12.3000011 41.0427131,12.6029981 41.2887143,12.981 C41.5347155,13.3590019 41.681714,13.8359971 41.7297143,14.412 L39.2997143,14.412 C39.2637141,13.9199975 39.077716,13.5870009 38.7417143,13.413 C38.4057126,13.2389991 38.0097166,13.152 37.5537143,13.152 C37.4097136,13.152 37.2537151,13.1609999 37.0857143,13.179 C36.9177134,13.1970001 36.764715,13.2359997 36.6267143,13.296 C36.4887136,13.3560003 36.3717148,13.4429994 36.2757143,13.557 C36.1797138,13.6710006 36.1317143,13.823999 36.1317143,14.016 C36.1317143,14.2440011 36.2157134,14.4299993 36.3837143,14.574 C36.5517151,14.7180007 36.7707129,14.8349995 37.0407143,14.925 C37.3107156,15.0150005 37.6197125,15.0959996 37.9677143,15.168 C38.315716,15.2400004 38.6697125,15.3179996 39.0297143,15.402 C39.4017161,15.4860004 39.7647125,15.5879994 40.1187143,15.708 C40.4727161,15.8280006 40.7877129,15.986999 41.0637143,16.185 C41.3397157,16.383001 41.5617134,16.6289985 41.7297143,16.923 C41.8977151,17.2170015 41.9817143,17.5799978 41.9817143,18.012 C41.9817143,18.6240031 41.8587155,19.1369979 41.6127143,19.551 C41.3667131,19.9650021 41.0457163,20.2979987 40.6497143,20.55 C40.2537123,20.8020013 39.8007168,20.9789995 39.2907143,21.081 C38.7807117,21.1830005 38.2617169,21.234 37.7337143,21.234 C37.1937116,21.234 36.6657169,21.1800005 36.1497143,21.072 C35.6337117,20.9639995 35.1747163,20.7840013 34.7727143,20.532 C34.3707123,20.2799987 34.0407156,19.9470021 33.7827143,19.533 C33.524713,19.1189979 33.3837144,18.6000031 33.3597143,17.976 L35.7897143,17.976 Z M46.6642857,11.694 L48.5362857,11.694 L48.5362857,13.404 L46.6642857,13.404 L46.6642857,18.012 C46.6642857,18.4440022 46.736285,18.7319993 46.8802857,18.876 C47.0242864,19.0200007 47.3122836,19.092 47.7442857,19.092 C47.8882864,19.092 48.0262851,19.0860001 48.1582857,19.074 C48.2902864,19.0619999 48.4162851,19.0440001 48.5362857,19.02 L48.5362857,21 C48.3202846,21.0360002 48.080287,21.0599999 47.8162857,21.072 C47.5522844,21.0840001 47.294287,21.09 47.0422857,21.09 C46.6462837,21.09 46.2712875,21.0630003 45.9172857,21.009 C45.5632839,20.9549997 45.2512871,20.8500008 44.9812857,20.694 C44.7112844,20.5379992 44.4982865,20.3160014 44.3422857,20.028 C44.1862849,19.7399986 44.1082857,19.3620023 44.1082857,18.894 L44.1082857,13.404 L42.5602857,13.404 L42.5602857,11.694 L44.1082857,11.694 L44.1082857,8.904 L46.6642857,8.904 L46.6642857,11.694 Z M49.7088571,11.694 L52.1388571,11.694 L52.1388571,13.422 L52.1748571,13.422 C52.2948577,13.1339986 52.4568561,12.8670012 52.6608571,12.621 C52.8648582,12.3749988 53.0988558,12.1650009 53.3628571,11.991 C53.6268585,11.8169991 53.9088556,11.6820005 54.2088571,11.586 C54.5088586,11.4899995 54.8208555,11.442 55.1448571,11.442 C55.312858,11.442 55.4988561,11.4719997 55.7028571,11.532 L55.7028571,13.908 C55.5828565,13.8839999 55.438858,13.8630001 55.2708571,13.845 C55.1028563,13.8269999 54.9408579,13.818 54.7848571,13.818 C54.3168548,13.818 53.9208588,13.8959992 53.5968571,14.052 C53.2728555,14.2080008 53.0118581,14.4209987 52.8138571,14.691 C52.6158562,14.9610014 52.4748576,15.2759982 52.3908571,15.636 C52.3068567,15.9960018 52.2648571,16.3859979 52.2648571,16.806 L52.2648571,21 L49.7088571,21 L49.7088571,11.694 Z M62.5994286,15.348 C62.479428,14.6999968 62.2664301,14.2080017 61.9604286,13.872 C61.654427,13.5359983 61.1894317,13.368 60.5654286,13.368 C60.1574265,13.368 59.8184299,13.4369993 59.5484286,13.575 C59.2784272,13.7130007 59.0624294,13.883999 58.9004286,14.088 C58.7384278,14.292001 58.6244289,14.5079989 58.5584286,14.736 C58.4924282,14.9640011 58.4534286,15.1679991 58.4414286,15.348 L62.5994286,15.348 Z M58.4414286,16.968 C58.4774288,17.7960041 58.6874267,18.3959981 59.0714286,18.768 C59.4554305,19.1400019 60.007425,19.326 60.7274286,19.326 C61.2434312,19.326 61.6874267,19.1970013 62.0594286,18.939 C62.4314304,18.6809987 62.6594282,18.4080014 62.7434286,18.12 L64.9934286,18.12 C64.6334268,19.2360056 64.0814323,20.0339976 63.3374286,20.514 C62.5934249,20.9940024 61.6934339,21.234 60.6374286,21.234 C59.9054249,21.234 59.2454315,21.1170012 58.6574286,20.883 C58.0694256,20.6489988 57.5714306,20.3160022 57.1634286,19.884 C56.7554265,19.4519978 56.4404297,18.936003 56.2184286,18.336 C55.9964275,17.735997 55.8854286,17.0760036 55.8854286,16.356 C55.8854286,15.6599965 55.9994274,15.012003 56.2274286,14.412 C56.4554297,13.811997 56.7794265,13.2930022 57.1994286,12.855 C57.6194307,12.4169978 58.1204257,12.0720013 58.7024286,11.82 C59.2844315,11.5679987 59.929425,11.442 60.6374286,11.442 C61.4294325,11.442 62.1194256,11.5949985 62.7074286,11.901 C63.2954315,12.2070015 63.7784267,12.6179974 64.1564286,13.134 C64.5344305,13.6500026 64.8074277,14.2379967 64.9754286,14.898 C65.1434294,15.5580033 65.2034288,16.2479964 65.1554286,16.968 L58.4414286,16.968 Z M66.508,14.556 C66.5440002,13.955997 66.6939987,13.458002 66.958,13.062 C67.2220013,12.665998 67.557998,12.3480012 67.966,12.108 C68.374002,11.8679988 68.8329975,11.6970005 69.343,11.595 C69.8530025,11.4929995 70.3659974,11.442 70.882,11.442 C71.3500023,11.442 71.8239976,11.4749997 72.304,11.541 C72.7840024,11.6070003 73.221998,11.735999 73.618,11.928 C74.014002,12.120001 74.3379987,12.3869983 74.59,12.729 C74.8420013,13.0710017 74.968,13.5239972 74.968,14.088 L74.968,18.93 C74.968,19.3500021 74.9919998,19.7519981 75.04,20.136 C75.0880002,20.5200019 75.1719994,20.807999 75.292,21 L72.7,21 C72.6519998,20.8559993 72.6130002,20.7090008 72.583,20.559 C72.5529999,20.4089993 72.5320001,20.2560008 72.52,20.1 C72.111998,20.5200021 71.6320028,20.8139992 71.08,20.982 C70.5279972,21.1500008 69.9640029,21.234 69.388,21.234 C68.9439978,21.234 68.5300019,21.1800005 68.146,21.072 C67.7619981,20.9639995 67.4260014,20.7960011 67.138,20.568 C66.8499986,20.3399989 66.6250008,20.0520017 66.463,19.704 C66.3009992,19.3559983 66.22,18.942 66.22,18.462 C66.22,17.9339974 66.3129991,17.4990017 66.499,17.157 C66.6850009,16.8149983 66.9249985,16.542001 67.219,16.338 C67.5130015,16.133999 67.8489981,15.9810005 68.227,15.879 C68.6050019,15.7769995 68.9859981,15.6960003 69.37,15.636 C69.7540019,15.5759997 70.1319981,15.5280002 70.504,15.492 C70.8760019,15.4559998 71.2059986,15.4020004 71.494,15.33 C71.7820014,15.2579996 72.0099992,15.1530007 72.178,15.015 C72.3460008,14.8769993 72.4240001,14.6760013 72.412,14.412 C72.412,14.1359986 72.3670005,13.9170008 72.277,13.755 C72.1869996,13.5929992 72.0670008,13.4670005 71.917,13.377 C71.7669992,13.2869995 71.593001,13.2270001 71.395,13.197 C71.196999,13.1669998 70.9840011,13.152 70.756,13.152 C70.2519975,13.152 69.8560014,13.2599989 69.568,13.476 C69.2799986,13.6920011 69.1120002,14.0519975 69.064,14.556 L66.508,14.556 Z M72.412,16.446 C72.3039995,16.5420005 72.1690008,16.6169997 72.007,16.671 C71.8449992,16.7250003 71.6710009,16.7699998 71.485,16.806 C71.2989991,16.8420002 71.104001,16.8719999 70.9,16.896 C70.695999,16.9200001 70.492001,16.9499998 70.288,16.986 C70.095999,17.0220002 69.9070009,17.0699997 69.721,17.13 C69.5349991,17.1900003 69.3730007,17.2709995 69.235,17.373 C69.0969993,17.4750005 68.9860004,17.6039992 68.902,17.76 C68.8179996,17.9160008 68.776,18.1139988 68.776,18.354 C68.776,18.5820011 68.8179996,18.7739992 68.902,18.93 C68.9860004,19.0860008 69.0999993,19.2089996 69.244,19.299 C69.3880007,19.3890004 69.555999,19.4519998 69.748,19.488 C69.940001,19.5240002 70.137999,19.542 70.342,19.542 C70.8460025,19.542 71.2359986,19.4580008 71.512,19.29 C71.7880014,19.1219992 71.9919993,18.9210012 72.124,18.687 C72.2560007,18.4529988 72.3369999,18.2160012 72.367,17.976 C72.3970002,17.7359988 72.412,17.5440007 72.412,17.4 L72.412,16.446 Z M76.9685714,11.694 L79.3805714,11.694 L79.3805714,12.954 L79.4165714,12.954 C79.7525731,12.4739976 80.1575691,12.1020013 80.6315714,11.838 C81.1055738,11.5739987 81.6485684,11.442 82.2605714,11.442 C82.8485744,11.442 83.385569,11.5559989 83.8715714,11.784 C84.3575739,12.0120011 84.7265702,12.4139971 84.9785714,12.99 C85.2545728,12.581998 85.6295691,12.2220016 86.1035714,11.91 C86.5775738,11.5979984 87.1385682,11.442 87.7865714,11.442 C88.2785739,11.442 88.7345693,11.5019994 89.1545714,11.622 C89.5745735,11.7420006 89.9345699,11.9339987 90.2345714,12.198 C90.5345729,12.4620013 90.7685706,12.8069979 90.9365714,13.233 C91.1045723,13.6590021 91.1885714,14.171997 91.1885714,14.772 L91.1885714,21 L88.6325714,21 L88.6325714,15.726 C88.6325714,15.4139984 88.6205715,15.1200014 88.5965714,14.844 C88.5725713,14.5679986 88.506572,14.328001 88.3985714,14.124 C88.2905709,13.919999 88.1315725,13.7580006 87.9215714,13.638 C87.7115704,13.5179994 87.4265732,13.458 87.0665714,13.458 C86.7065696,13.458 86.4155725,13.5269993 86.1935714,13.665 C85.9715703,13.8030007 85.7975721,13.9829989 85.6715714,14.205 C85.5455708,14.4270011 85.4615716,14.6789986 85.4195714,14.961 C85.3775712,15.2430014 85.3565714,15.5279986 85.3565714,15.816 L85.3565714,21 L82.8005714,21 L82.8005714,15.78 C82.8005714,15.5039986 82.7945715,15.2310013 82.7825714,14.961 C82.7705714,14.6909986 82.7195719,14.442 82.6295714,14.214 C82.539571,13.9859989 82.3895725,13.8030007 82.1795714,13.665 C81.9695704,13.5269993 81.6605735,13.458 81.2525714,13.458 C81.1325708,13.458 80.9735724,13.4849997 80.7755714,13.539 C80.5775704,13.5930003 80.3855724,13.6949992 80.1995714,13.845 C80.0135705,13.9950008 79.8545721,14.2109986 79.7225714,14.493 C79.5905708,14.7750014 79.5245714,15.1439977 79.5245714,15.6 L79.5245714,21 L76.9685714,21 L76.9685714,11.694 Z M100.733714,10.254 L98.1777143,10.254 L98.1777143,8.148 L100.733714,8.148 L100.733714,10.254 Z M98.1777143,11.694 L100.733714,11.694 L100.733714,21 L98.1777143,21 L98.1777143,11.694 Z M104.678286,17.976 C104.678286,18.2520014 104.735285,18.488999 104.849286,18.687 C104.963286,18.885001 105.110285,19.0469994 105.290286,19.173 C105.470287,19.2990006 105.677285,19.3919997 105.911286,19.452 C106.145287,19.5120003 106.388284,19.542 106.640286,19.542 C106.820287,19.542 107.009285,19.5210002 107.207286,19.479 C107.405287,19.4369998 107.585285,19.3710004 107.747286,19.281 C107.909287,19.1909996 108.044285,19.0710007 108.152286,18.921 C108.260286,18.7709993 108.314286,18.5820011 108.314286,18.354 C108.314286,17.9699981 108.059288,17.682001 107.549286,17.49 C107.039283,17.297999 106.32829,17.106001 105.416286,16.914 C105.044284,16.8299996 104.681287,16.7310006 104.327286,16.617 C103.973284,16.5029994 103.658287,16.3530009 103.382286,16.167 C103.106284,15.9809991 102.884287,15.7470014 102.716286,15.465 C102.548285,15.1829986 102.464286,14.838002 102.464286,14.43 C102.464286,13.829997 102.581285,13.3380019 102.815286,12.954 C103.049287,12.5699981 103.358284,12.2670011 103.742286,12.045 C104.126288,11.8229989 104.558283,11.6670005 105.038286,11.577 C105.518288,11.4869996 106.010283,11.442 106.514286,11.442 C107.018288,11.442 107.507283,11.4899995 107.981286,11.586 C108.455288,11.6820005 108.878284,11.8439989 109.250286,12.072 C109.622288,12.3000011 109.931284,12.6029981 110.177286,12.981 C110.423287,13.3590019 110.570285,13.8359971 110.618286,14.412 L108.188286,14.412 C108.152286,13.9199975 107.966287,13.5870009 107.630286,13.413 C107.294284,13.2389991 106.898288,13.152 106.442286,13.152 C106.298285,13.152 106.142287,13.1609999 105.974286,13.179 C105.806285,13.1970001 105.653286,13.2359997 105.515286,13.296 C105.377285,13.3560003 105.260286,13.4429994 105.164286,13.557 C105.068285,13.6710006 105.020286,13.823999 105.020286,14.016 C105.020286,14.2440011 105.104285,14.4299993 105.272286,14.574 C105.440287,14.7180007 105.659284,14.8349995 105.929286,14.925 C106.199287,15.0150005 106.508284,15.0959996 106.856286,15.168 C107.204287,15.2400004 107.558284,15.3179996 107.918286,15.402 C108.290288,15.4860004 108.653284,15.5879994 109.007286,15.708 C109.361287,15.8280006 109.676284,15.986999 109.952286,16.185 C110.228287,16.383001 110.450285,16.6289985 110.618286,16.923 C110.786287,17.2170015 110.870286,17.5799978 110.870286,18.012 C110.870286,18.6240031 110.747287,19.1369979 110.501286,19.551 C110.255284,19.9650021 109.934288,20.2979987 109.538286,20.55 C109.142284,20.8020013 108.689288,20.9789995 108.179286,21.081 C107.669283,21.1830005 107.150288,21.234 106.622286,21.234 C106.082283,21.234 105.554288,21.1800005 105.038286,21.072 C104.522283,20.9639995 104.063288,20.7840013 103.661286,20.532 C103.259284,20.2799987 102.929287,19.9470021 102.671286,19.533 C102.413284,19.1189979 102.272286,18.6000031 102.248286,17.976 L104.678286,17.976 Z M124.087429,16.356 C124.087429,15.959998 124.045429,15.5820018 123.961429,15.222 C123.877428,14.8619982 123.745429,14.5440014 123.565429,14.268 C123.385428,13.9919986 123.16043,13.7730008 122.890429,13.611 C122.620427,13.4489992 122.29343,13.368 121.909429,13.368 C121.537427,13.368 121.21343,13.4489992 120.937429,13.611 C120.661427,13.7730008 120.433429,13.9919986 120.253429,14.268 C120.073428,14.5440014 119.941429,14.8619982 119.857429,15.222 C119.773428,15.5820018 119.731429,15.959998 119.731429,16.356 C119.731429,16.7400019 119.773428,17.1119982 119.857429,17.472 C119.941429,17.8320018 120.073428,18.1499986 120.253429,18.426 C120.433429,18.7020014 120.661427,18.9209992 120.937429,19.083 C121.21343,19.2450008 121.537427,19.326 121.909429,19.326 C122.29343,19.326 122.620427,19.2450008 122.890429,19.083 C123.16043,18.9209992 123.385428,18.7020014 123.565429,18.426 C123.745429,18.1499986 123.877428,17.8320018 123.961429,17.472 C124.045429,17.1119982 124.087429,16.7400019 124.087429,16.356 Z M117.265429,8.148 L119.821429,8.148 L119.821429,12.828 L119.857429,12.828 C120.16943,12.3479976 120.592426,11.9970011 121.126429,11.775 C121.660431,11.5529989 122.215426,11.442 122.791429,11.442 C123.259431,11.442 123.721426,11.537999 124.177429,11.73 C124.633431,11.922001 125.044427,12.215998 125.410429,12.612 C125.77643,13.008002 126.073427,13.5149969 126.301429,14.133 C126.52943,14.7510031 126.643429,15.4859957 126.643429,16.338 C126.643429,17.1900043 126.52943,17.9249969 126.301429,18.543 C126.073427,19.1610031 125.77643,19.667998 125.410429,20.064 C125.044427,20.460002 124.633431,20.753999 124.177429,20.946 C123.721426,21.138001 123.259431,21.234 122.791429,21.234 C122.107425,21.234 121.495431,21.1260011 120.955429,20.91 C120.415426,20.6939989 120.00743,20.3280026 119.731429,19.812 L119.695429,19.812 L119.695429,21 L117.265429,21 L117.265429,8.148 Z M136.942,21 L134.512,21 L134.512,19.704 L134.458,19.704 C134.133998,20.2440027 133.714003,20.6339988 133.198,20.874 C132.681997,21.1140012 132.154003,21.234 131.614,21.234 C130.929997,21.234 130.369002,21.1440009 129.931,20.964 C129.492998,20.7839991 129.148001,20.5290016 128.896,20.199 C128.643999,19.8689983 128.467001,19.4670024 128.365,18.993 C128.262999,18.5189976 128.212,17.9940029 128.212,17.418 L128.212,11.694 L130.768,11.694 L130.768,16.95 C130.768,17.7180038 130.887999,18.2909981 131.128,18.669 C131.368001,19.0470019 131.793997,19.236 132.406,19.236 C133.102003,19.236 133.605998,19.0290021 133.918,18.615 C134.230002,18.2009979 134.386,17.5200047 134.386,16.572 L134.386,11.694 L136.942,11.694 L136.942,21 Z M141.462571,10.254 L138.906571,10.254 L138.906571,8.148 L141.462571,8.148 L141.462571,10.254 Z M138.906571,11.694 L141.462571,11.694 L141.462571,21 L138.906571,21 L138.906571,11.694 Z M143.499143,8.148 L146.055143,8.148 L146.055143,21 L143.499143,21 L143.499143,8.148 Z M151.259714,11.694 L153.131714,11.694 L153.131714,13.404 L151.259714,13.404 L151.259714,18.012 C151.259714,18.4440022 151.331714,18.7319993 151.475714,18.876 C151.619715,19.0200007 151.907712,19.092 152.339714,19.092 C152.483715,19.092 152.621714,19.0860001 152.753714,19.074 C152.885715,19.0619999 153.011714,19.0440001 153.131714,19.02 L153.131714,21 C152.915713,21.0360002 152.675716,21.0599999 152.411714,21.072 C152.147713,21.0840001 151.889716,21.09 151.637714,21.09 C151.241712,21.09 150.866716,21.0630003 150.512714,21.009 C150.158713,20.9549997 149.846716,20.8500008 149.576714,20.694 C149.306713,20.5379992 149.093715,20.3160014 148.937714,20.028 C148.781714,19.7399986 148.703714,19.3620023 148.703714,18.894 L148.703714,13.404 L147.155714,13.404 L147.155714,11.694 L148.703714,11.694 L148.703714,8.904 L151.259714,8.904 L151.259714,11.694 Z M159.814857,13.404 L158.284857,13.404 L158.284857,11.694 L159.814857,11.694 L159.814857,10.974 C159.814857,10.1459959 160.072855,9.46800264 160.588857,8.94 C161.10486,8.41199736 161.884852,8.148 162.928857,8.148 C163.156858,8.148 163.384856,8.15699991 163.612857,8.175 C163.840858,8.19300009 164.062856,8.20799994 164.278857,8.22 L164.278857,10.128 C163.978856,10.0919998 163.666859,10.074 163.342857,10.074 C162.994855,10.074 162.745858,10.1549992 162.595857,10.317 C162.445856,10.4790008 162.370857,10.7519981 162.370857,11.136 L162.370857,11.694 L164.134857,11.694 L164.134857,13.404 L162.370857,13.404 L162.370857,21 L159.814857,21 L159.814857,13.404 Z M167.467429,16.356 C167.467429,16.7280019 167.503428,17.0909982 167.575429,17.445 C167.647429,17.7990018 167.770428,18.1169986 167.944429,18.399 C168.118429,18.6810014 168.349427,18.9059992 168.637429,19.074 C168.92543,19.2420008 169.285426,19.326 169.717429,19.326 C170.149431,19.326 170.512427,19.2420008 170.806429,19.074 C171.10043,18.9059992 171.334428,18.6810014 171.508429,18.399 C171.682429,18.1169986 171.805428,17.7990018 171.877429,17.445 C171.949429,17.0909982 171.985429,16.7280019 171.985429,16.356 C171.985429,15.9839981 171.949429,15.6180018 171.877429,15.258 C171.805428,14.8979982 171.682429,14.5800014 171.508429,14.304 C171.334428,14.0279986 171.10043,13.8030009 170.806429,13.629 C170.512427,13.4549991 170.149431,13.368 169.717429,13.368 C169.285426,13.368 168.92543,13.4549991 168.637429,13.629 C168.349427,13.8030009 168.118429,14.0279986 167.944429,14.304 C167.770428,14.5800014 167.647429,14.8979982 167.575429,15.258 C167.503428,15.6180018 167.467429,15.9839981 167.467429,16.356 Z M164.911429,16.356 C164.911429,15.6119963 165.025427,14.937003 165.253429,14.331 C165.48143,13.724997 165.805426,13.2090021 166.225429,12.783 C166.645431,12.3569979 167.149426,12.0270012 167.737429,11.793 C168.325432,11.5589988 168.985425,11.442 169.717429,11.442 C170.449432,11.442 171.112426,11.5589988 171.706429,11.793 C172.300432,12.0270012 172.807426,12.3569979 173.227429,12.783 C173.647431,13.2090021 173.971427,13.724997 174.199429,14.331 C174.42743,14.937003 174.541429,15.6119963 174.541429,16.356 C174.541429,17.1000037 174.42743,17.771997 174.199429,18.372 C173.971427,18.972003 173.647431,19.4849979 173.227429,19.911 C172.807426,20.3370021 172.300432,20.6639989 171.706429,20.892 C171.112426,21.1200011 170.449432,21.234 169.717429,21.234 C168.985425,21.234 168.325432,21.1200011 167.737429,20.892 C167.149426,20.6639989 166.645431,20.3370021 166.225429,19.911 C165.805426,19.4849979 165.48143,18.972003 165.253429,18.372 C165.025427,17.771997 164.911429,17.1000037 164.911429,16.356 Z M176.146,11.694 L178.576,11.694 L178.576,13.422 L178.612,13.422 C178.732001,13.1339986 178.893999,12.8670012 179.098,12.621 C179.302001,12.3749988 179.535999,12.1650009 179.8,11.991 C180.064001,11.8169991 180.345999,11.6820005 180.646,11.586 C180.946002,11.4899995 181.257998,11.442 181.582,11.442 C181.750001,11.442 181.935999,11.4719997 182.14,11.532 L182.14,13.908 C182.019999,13.8839999 181.876001,13.8630001 181.708,13.845 C181.539999,13.8269999 181.378001,13.818 181.222,13.818 C180.753998,13.818 180.358002,13.8959992 180.034,14.052 C179.709998,14.2080008 179.449001,14.4209987 179.251,14.691 C179.052999,14.9610014 178.912,15.2759982 178.828,15.636 C178.744,15.9960018 178.702,16.3859979 178.702,16.806 L178.702,21 L176.146,21 L176.146,11.694 Z M194.385143,14.97 C194.217142,13.9019947 193.587148,13.368 192.495143,13.368 C192.087141,13.368 191.745144,13.4609991 191.469143,13.647 C191.193141,13.8330009 190.968144,14.0729985 190.794143,14.367 C190.620142,14.6610015 190.497143,14.9849982 190.425143,15.339 C190.353142,15.6930018 190.317143,16.0439983 190.317143,16.392 C190.317143,16.7280017 190.353142,17.0699983 190.425143,17.418 C190.497143,17.7660017 190.614142,18.0809986 190.776143,18.363 C190.938144,18.6450014 191.157141,18.8759991 191.433143,19.056 C191.709144,19.2360009 192.045141,19.326 192.441143,19.326 C193.053146,19.326 193.524141,19.1550017 193.854143,18.813 C194.184145,18.4709983 194.391142,18.0120029 194.475143,17.436 L196.941143,17.436 C196.773142,18.6720062 196.293147,19.6139968 195.501143,20.262 C194.709139,20.9100032 193.695149,21.234 192.459143,21.234 C191.763139,21.234 191.124146,21.1170012 190.542143,20.883 C189.96014,20.6489988 189.465145,20.3220021 189.057143,19.902 C188.649141,19.4819979 188.331144,18.9810029 188.103143,18.399 C187.875142,17.8169971 187.761143,17.1780035 187.761143,16.482 C187.761143,15.7619964 187.866142,15.0930031 188.076143,14.475 C188.286144,13.8569969 188.595141,13.3230023 189.003143,12.873 C189.411145,12.4229978 189.90914,12.0720013 190.497143,11.82 C191.085146,11.5679987 191.757139,11.442 192.513143,11.442 C193.065146,11.442 193.59614,11.5139993 194.106143,11.658 C194.616145,11.8020007 195.072141,12.0209985 195.474143,12.315 C195.876145,12.6090015 196.203142,12.9749978 196.455143,13.413 C196.707144,13.8510022 196.851143,14.369997 196.887143,14.97 L194.385143,14.97 Z M198.401714,8.148 L200.957714,8.148 L200.957714,21 L198.401714,21 L198.401714,8.148 Z M209.186286,15.348 C209.066285,14.6999968 208.853287,14.2080017 208.547286,13.872 C208.241284,13.5359983 207.776289,13.368 207.152286,13.368 C206.744284,13.368 206.405287,13.4369993 206.135286,13.575 C205.865284,13.7130007 205.649287,13.883999 205.487286,14.088 C205.325285,14.292001 205.211286,14.5079989 205.145286,14.736 C205.079285,14.9640011 205.040286,15.1679991 205.028286,15.348 L209.186286,15.348 Z M205.028286,16.968 C205.064286,17.7960041 205.274284,18.3959981 205.658286,18.768 C206.042288,19.1400019 206.594282,19.326 207.314286,19.326 C207.830288,19.326 208.274284,19.1970013 208.646286,18.939 C209.018288,18.6809987 209.246285,18.4080014 209.330286,18.12 L211.580286,18.12 C211.220284,19.2360056 210.668289,20.0339976 209.924286,20.514 C209.180282,20.9940024 208.280291,21.234 207.224286,21.234 C206.492282,21.234 205.832289,21.1170012 205.244286,20.883 C204.656283,20.6489988 204.158288,20.3160022 203.750286,19.884 C203.342284,19.4519978 203.027287,18.936003 202.805286,18.336 C202.583285,17.735997 202.472286,17.0760036 202.472286,16.356 C202.472286,15.6599965 202.586285,15.012003 202.814286,14.412 C203.042287,13.811997 203.366284,13.2930022 203.786286,12.855 C204.206288,12.4169978 204.707283,12.0720013 205.289286,11.82 C205.871289,11.5679987 206.516282,11.442 207.224286,11.442 C208.01629,11.442 208.706283,11.5949985 209.294286,11.901 C209.882289,12.2070015 210.365284,12.6179974 210.743286,13.134 C211.121288,13.6500026 211.394285,14.2379967 211.562286,14.898 C211.730287,15.5580033 211.790286,16.2479964 211.742286,16.968 L205.028286,16.968 Z M218.350857,21 L215.506857,21 L212.320857,11.694 L215.002857,11.694 L216.964857,18.048 L217.000857,18.048 L218.962857,11.694 L221.500857,11.694 L218.350857,21 Z M228.775429,15.348 C228.655428,14.6999968 228.44243,14.2080017 228.136429,13.872 C227.830427,13.5359983 227.365432,13.368 226.741429,13.368 C226.333427,13.368 225.99443,13.4369993 225.724429,13.575 C225.454427,13.7130007 225.238429,13.883999 225.076429,14.088 C224.914428,14.292001 224.800429,14.5079989 224.734429,14.736 C224.668428,14.9640011 224.629429,15.1679991 224.617429,15.348 L228.775429,15.348 Z M224.617429,16.968 C224.653429,17.7960041 224.863427,18.3959981 225.247429,18.768 C225.63143,19.1400019 226.183425,19.326 226.903429,19.326 C227.419431,19.326 227.863427,19.1970013 228.235429,18.939 C228.60743,18.6809987 228.835428,18.4080014 228.919429,18.12 L231.169429,18.12 C230.809427,19.2360056 230.257432,20.0339976 229.513429,20.514 C228.769425,20.9940024 227.869434,21.234 226.813429,21.234 C226.081425,21.234 225.421432,21.1170012 224.833429,20.883 C224.245426,20.6489988 223.747431,20.3160022 223.339429,19.884 C222.931427,19.4519978 222.61643,18.936003 222.394429,18.336 C222.172427,17.735997 222.061429,17.0760036 222.061429,16.356 C222.061429,15.6599965 222.175427,15.012003 222.403429,14.412 C222.63143,13.811997 222.955426,13.2930022 223.375429,12.855 C223.795431,12.4169978 224.296426,12.0720013 224.878429,11.82 C225.460431,11.5679987 226.105425,11.442 226.813429,11.442 C227.605433,11.442 228.295426,11.5949985 228.883429,11.901 C229.471432,12.2070015 229.954427,12.6179974 230.332429,13.134 C230.71043,13.6500026 230.983428,14.2379967 231.151429,14.898 C231.319429,15.5580033 231.379429,16.2479964 231.331429,16.968 L224.617429,16.968 Z M232.792,11.694 L235.222,11.694 L235.222,13.422 L235.258,13.422 C235.378001,13.1339986 235.539999,12.8670012 235.744,12.621 C235.948001,12.3749988 236.181999,12.1650009 236.446,11.991 C236.710001,11.8169991 236.991998,11.6820005 237.292,11.586 C237.592001,11.4899995 237.903998,11.442 238.228,11.442 C238.396001,11.442 238.581999,11.4719997 238.786,11.532 L238.786,13.908 C238.665999,13.8839999 238.522001,13.8630001 238.354,13.845 C238.185999,13.8269999 238.024001,13.818 237.868,13.818 C237.399998,13.818 237.004002,13.8959992 236.68,14.052 C236.355998,14.2080008 236.095001,14.4209987 235.897,14.691 C235.698999,14.9610014 235.558,15.2759982 235.474,15.636 C235.39,15.9960018 235.348,16.3859979 235.348,16.806 L235.348,21 L232.792,21 L232.792,11.694 Z M11.482,43.032 L14.812,43.032 L13.192,38.316 L13.156,38.316 L11.482,43.032 Z M11.752,35.148 L14.65,35.148 L19.456,48 L16.522,48 L15.55,45.138 L10.744,45.138 L9.736,48 L6.892,48 L11.752,35.148 Z M26.5865714,41.97 C26.4185706,40.9019947 25.7885769,40.368 24.6965714,40.368 C24.2885694,40.368 23.9465728,40.4609991 23.6705714,40.647 C23.39457,40.8330009 23.1695723,41.0729985 22.9955714,41.367 C22.8215706,41.6610015 22.6985718,41.9849982 22.6265714,42.339 C22.5545711,42.6930018 22.5185714,43.0439983 22.5185714,43.392 C22.5185714,43.7280017 22.5545711,44.0699983 22.6265714,44.418 C22.6985718,44.7660017 22.8155706,45.0809986 22.9775714,45.363 C23.1395722,45.6450014 23.35857,45.8759991 23.6345714,46.056 C23.9105728,46.2360009 24.2465694,46.326 24.6425714,46.326 C25.2545745,46.326 25.7255698,46.1550017 26.0555714,45.813 C26.3855731,45.4709983 26.592571,45.0120029 26.6765714,44.436 L29.1425714,44.436 C28.9745706,45.6720062 28.4945754,46.6139968 27.7025714,47.262 C26.9105675,47.9100032 25.8965776,48.234 24.6605714,48.234 C23.9645679,48.234 23.3255743,48.1170012 22.7435714,47.883 C22.1615685,47.6489988 21.6665735,47.3220021 21.2585714,46.902 C20.8505694,46.4819979 20.5325726,45.9810029 20.3045714,45.399 C20.0765703,44.8169971 19.9625714,44.1780035 19.9625714,43.482 C19.9625714,42.7619964 20.0675704,42.0930031 20.2775714,41.475 C20.4875725,40.8569969 20.7965694,40.3230023 21.2045714,39.873 C21.6125735,39.4229978 22.1105685,39.0720013 22.6985714,38.82 C23.2865744,38.5679987 23.9585676,38.442 24.7145714,38.442 C25.2665742,38.442 25.7975689,38.5139993 26.3075714,38.658 C26.817574,38.8020007 27.2735694,39.0209985 27.6755714,39.315 C28.0775734,39.6090015 28.4045702,39.9749978 28.6565714,40.413 C28.9085727,40.8510022 29.0525712,41.369997 29.0885714,41.97 L26.5865714,41.97 Z M36.8671429,41.97 C36.699142,40.9019947 36.0691483,40.368 34.9771429,40.368 C34.5691408,40.368 34.2271442,40.4609991 33.9511429,40.647 C33.6751415,40.8330009 33.4501437,41.0729985 33.2761429,41.367 C33.102142,41.6610015 32.9791432,41.9849982 32.9071429,42.339 C32.8351425,42.6930018 32.7991429,43.0439983 32.7991429,43.392 C32.7991429,43.7280017 32.8351425,44.0699983 32.9071429,44.418 C32.9791432,44.7660017 33.096142,45.0809986 33.2581429,45.363 C33.4201437,45.6450014 33.6391415,45.8759991 33.9151429,46.056 C34.1911442,46.2360009 34.5271409,46.326 34.9231429,46.326 C35.5351459,46.326 36.0061412,46.1550017 36.3361429,45.813 C36.6661445,45.4709983 36.8731424,45.0120029 36.9571429,44.436 L39.4231429,44.436 C39.255142,45.6720062 38.7751468,46.6139968 37.9831429,47.262 C37.1911389,47.9100032 36.177149,48.234 34.9411429,48.234 C34.2451394,48.234 33.6061458,48.1170012 33.0241429,47.883 C32.4421399,47.6489988 31.9471449,47.3220021 31.5391429,46.902 C31.1311408,46.4819979 30.813144,45.9810029 30.5851429,45.399 C30.3571417,44.8169971 30.2431429,44.1780035 30.2431429,43.482 C30.2431429,42.7619964 30.3481418,42.0930031 30.5581429,41.475 C30.7681439,40.8569969 31.0771408,40.3230023 31.4851429,39.873 C31.8931449,39.4229978 32.3911399,39.0720013 32.9791429,38.82 C33.5671458,38.5679987 34.2391391,38.442 34.9951429,38.442 C35.5471456,38.442 36.0781403,38.5139993 36.5881429,38.658 C37.0981454,38.8020007 37.5541408,39.0209985 37.9561429,39.315 C38.3581449,39.6090015 38.6851416,39.9749978 38.9371429,40.413 C39.1891441,40.8510022 39.3331427,41.369997 39.3691429,41.97 L36.8671429,41.97 Z M43.0797143,43.356 C43.0797143,43.7280019 43.1157139,44.0909982 43.1877143,44.445 C43.2597146,44.7990018 43.3827134,45.1169986 43.5567143,45.399 C43.7307152,45.6810014 43.9617128,45.9059992 44.2497143,46.074 C44.5377157,46.2420008 44.8977121,46.326 45.3297143,46.326 C45.7617164,46.326 46.1247128,46.2420008 46.4187143,46.074 C46.7127158,45.9059992 46.9467134,45.6810014 47.1207143,45.399 C47.2947152,45.1169986 47.4177139,44.7990018 47.4897143,44.445 C47.5617146,44.0909982 47.5977143,43.7280019 47.5977143,43.356 C47.5977143,42.9839981 47.5617146,42.6180018 47.4897143,42.258 C47.4177139,41.8979982 47.2947152,41.5800014 47.1207143,41.304 C46.9467134,41.0279986 46.7127158,40.8030009 46.4187143,40.629 C46.1247128,40.4549991 45.7617164,40.368 45.3297143,40.368 C44.8977121,40.368 44.5377157,40.4549991 44.2497143,40.629 C43.9617128,40.8030009 43.7307152,41.0279986 43.5567143,41.304 C43.3827134,41.5800014 43.2597146,41.8979982 43.1877143,42.258 C43.1157139,42.6180018 43.0797143,42.9839981 43.0797143,43.356 Z M40.5237143,43.356 C40.5237143,42.6119963 40.6377131,41.937003 40.8657143,41.331 C41.0937154,40.724997 41.4177122,40.2090021 41.8377143,39.783 C42.2577164,39.3569979 42.7617113,39.0270012 43.3497143,38.793 C43.9377172,38.5589988 44.5977106,38.442 45.3297143,38.442 C46.0617179,38.442 46.7247113,38.5589988 47.3187143,38.793 C47.9127173,39.0270012 48.4197122,39.3569979 48.8397143,39.783 C49.2597164,40.2090021 49.5837131,40.724997 49.8117143,41.331 C50.0397154,41.937003 50.1537143,42.6119963 50.1537143,43.356 C50.1537143,44.1000037 50.0397154,44.771997 49.8117143,45.372 C49.5837131,45.972003 49.2597164,46.4849979 48.8397143,46.911 C48.4197122,47.3370021 47.9127173,47.6639989 47.3187143,47.892 C46.7247113,48.1200011 46.0617179,48.234 45.3297143,48.234 C44.5977106,48.234 43.9377172,48.1200011 43.3497143,47.892 C42.7617113,47.6639989 42.2577164,47.3370021 41.8377143,46.911 C41.4177122,46.4849979 41.0937154,45.972003 40.8657143,45.372 C40.6377131,44.771997 40.5237143,44.1000037 40.5237143,43.356 Z M60.4882857,48 L58.0582857,48 L58.0582857,46.704 L58.0042857,46.704 C57.6802841,47.2440027 57.2602883,47.6339988 56.7442857,47.874 C56.2282831,48.1140012 55.7002884,48.234 55.1602857,48.234 C54.4762823,48.234 53.9152879,48.1440009 53.4772857,47.964 C53.0392835,47.7839991 52.694287,47.5290016 52.4422857,47.199 C52.1902845,46.8689983 52.0132862,46.4670024 51.9112857,45.993 C51.8092852,45.5189976 51.7582857,44.9940029 51.7582857,44.418 L51.7582857,38.694 L54.3142857,38.694 L54.3142857,43.95 C54.3142857,44.7180038 54.4342845,45.2909981 54.6742857,45.669 C54.9142869,46.0470019 55.3402827,46.236 55.9522857,46.236 C56.6482892,46.236 57.1522842,46.0290021 57.4642857,45.615 C57.7762873,45.2009979 57.9322857,44.5200047 57.9322857,43.572 L57.9322857,38.694 L60.4882857,38.694 L60.4882857,48 Z M62.3808571,38.694 L64.8108571,38.694 L64.8108571,39.99 L64.8648571,39.99 C65.1888588,39.4499973 65.6088546,39.0570012 66.1248571,38.811 C66.6408597,38.5649988 67.1688544,38.442 67.7088571,38.442 C68.3928606,38.442 68.953855,38.5349991 69.3918571,38.721 C69.8298593,38.9070009 70.1748559,39.1649984 70.4268571,39.495 C70.6788584,39.8250017 70.8558566,40.2269976 70.9578571,40.701 C71.0598577,41.1750024 71.1108571,41.6999971 71.1108571,42.276 L71.1108571,48 L68.5548571,48 L68.5548571,42.744 C68.5548571,41.9759962 68.4348583,41.4030019 68.1948571,41.025 C67.9548559,40.6469981 67.5288602,40.458 66.9168571,40.458 C66.2208537,40.458 65.7168587,40.6649979 65.4048571,41.079 C65.0928556,41.4930021 64.9368571,42.1739953 64.9368571,43.122 L64.9368571,48 L62.3808571,48 L62.3808571,38.694 Z M76.2434286,38.694 L78.1154286,38.694 L78.1154286,40.404 L76.2434286,40.404 L76.2434286,45.012 C76.2434286,45.4440022 76.3154279,45.7319993 76.4594286,45.876 C76.6034293,46.0200007 76.8914264,46.092 77.3234286,46.092 C77.4674293,46.092 77.6054279,46.0860001 77.7374286,46.074 C77.8694292,46.0619999 77.995428,46.0440001 78.1154286,46.02 L78.1154286,48 C77.8994275,48.0360002 77.6594299,48.0599999 77.3954286,48.072 C77.1314273,48.0840001 76.8734298,48.09 76.6214286,48.09 C76.2254266,48.09 75.8504303,48.0630003 75.4964286,48.009 C75.1424268,47.9549997 74.8304299,47.8500008 74.5604286,47.694 C74.2904272,47.5379992 74.0774294,47.3160014 73.9214286,47.028 C73.7654278,46.7399986 73.6874286,46.3620023 73.6874286,45.894 L73.6874286,40.404 L72.1394286,40.404 L72.1394286,38.694 L73.6874286,38.694 L73.6874286,35.904 L76.2434286,35.904 L76.2434286,38.694 Z M79.18,41.556 C79.2160002,40.955997 79.3659987,40.458002 79.63,40.062 C79.8940013,39.665998 80.229998,39.3480012 80.638,39.108 C81.046002,38.8679988 81.5049975,38.6970005 82.015,38.595 C82.5250025,38.4929995 83.0379974,38.442 83.554,38.442 C84.0220023,38.442 84.4959976,38.4749997 84.976,38.541 C85.4560024,38.6070003 85.893998,38.735999 86.29,38.928 C86.686002,39.120001 87.0099987,39.3869983 87.262,39.729 C87.5140013,40.0710017 87.64,40.5239972 87.64,41.088 L87.64,45.93 C87.64,46.3500021 87.6639998,46.7519981 87.712,47.136 C87.7600002,47.5200019 87.8439994,47.807999 87.964,48 L85.372,48 C85.3239998,47.8559993 85.2850002,47.7090008 85.255,47.559 C85.2249999,47.4089993 85.2040001,47.2560008 85.192,47.1 C84.783998,47.5200021 84.3040028,47.8139992 83.752,47.982 C83.1999972,48.1500008 82.6360029,48.234 82.06,48.234 C81.6159978,48.234 81.2020019,48.1800005 80.818,48.072 C80.4339981,47.9639995 80.0980014,47.7960011 79.81,47.568 C79.5219986,47.3399989 79.2970008,47.0520017 79.135,46.704 C78.9729992,46.3559983 78.892,45.942 78.892,45.462 C78.892,44.9339974 78.9849991,44.4990017 79.171,44.157 C79.3570009,43.8149983 79.5969985,43.542001 79.891,43.338 C80.1850015,43.133999 80.5209981,42.9810005 80.899,42.879 C81.2770019,42.7769995 81.6579981,42.6960003 82.042,42.636 C82.4260019,42.5759997 82.8039981,42.5280002 83.176,42.492 C83.5480019,42.4559998 83.8779986,42.4020004 84.166,42.33 C84.4540014,42.2579996 84.6819992,42.1530007 84.85,42.015 C85.0180008,41.8769993 85.0960001,41.6760013 85.084,41.412 C85.084,41.1359986 85.0390005,40.9170008 84.949,40.755 C84.8589995,40.5929992 84.7390008,40.4670005 84.589,40.377 C84.4389992,40.2869995 84.265001,40.2270001 84.067,40.197 C83.868999,40.1669998 83.6560011,40.152 83.428,40.152 C82.9239975,40.152 82.5280014,40.2599989 82.24,40.476 C81.9519986,40.6920011 81.7840002,41.0519975 81.736,41.556 L79.18,41.556 Z M85.084,43.446 C84.9759995,43.5420005 84.8410008,43.6169997 84.679,43.671 C84.5169992,43.7250003 84.3430009,43.7699998 84.157,43.806 C83.9709991,43.8420002 83.776001,43.8719999 83.572,43.896 C83.367999,43.9200001 83.164001,43.9499998 82.96,43.986 C82.767999,44.0220002 82.5790009,44.0699997 82.393,44.13 C82.2069991,44.1900003 82.0450007,44.2709995 81.907,44.373 C81.7689993,44.4750005 81.6580004,44.6039992 81.574,44.76 C81.4899996,44.9160008 81.448,45.1139988 81.448,45.354 C81.448,45.5820011 81.4899996,45.7739992 81.574,45.93 C81.6580004,46.0860008 81.7719993,46.2089996 81.916,46.299 C82.0600007,46.3890004 82.227999,46.4519998 82.42,46.488 C82.612001,46.5240002 82.809999,46.542 83.014,46.542 C83.5180025,46.542 83.9079986,46.4580008 84.184,46.29 C84.4600014,46.1219992 84.6639993,45.9210012 84.796,45.687 C84.9280007,45.4529988 85.0089998,45.2160012 85.039,44.976 C85.0690002,44.7359988 85.084,44.5440007 85.084,44.4 L85.084,43.446 Z M89.5685714,38.694 L91.9985714,38.694 L91.9985714,39.99 L92.0525714,39.99 C92.376573,39.4499973 92.7965688,39.0570012 93.3125714,38.811 C93.828574,38.5649988 94.3565687,38.442 94.8965714,38.442 C95.5805748,38.442 96.1415692,38.5349991 96.5795714,38.721 C97.0175736,38.9070009 97.3625702,39.1649984 97.6145714,39.495 C97.8665727,39.8250017 98.0435709,40.2269976 98.1455714,40.701 C98.2475719,41.1750024 98.2985714,41.6999971 98.2985714,42.276 L98.2985714,48 L95.7425714,48 L95.7425714,42.744 C95.7425714,41.9759962 95.6225726,41.4030019 95.3825714,41.025 C95.1425702,40.6469981 94.7165745,40.458 94.1045714,40.458 C93.4085679,40.458 92.904573,40.6649979 92.5925714,41.079 C92.2805699,41.4930021 92.1245714,42.1739953 92.1245714,43.122 L92.1245714,48 L89.5685714,48 L89.5685714,38.694 Z M103.431143,38.694 L105.303143,38.694 L105.303143,40.404 L103.431143,40.404 L103.431143,45.012 C103.431143,45.4440022 103.503142,45.7319993 103.647143,45.876 C103.791144,46.0200007 104.079141,46.092 104.511143,46.092 C104.655144,46.092 104.793142,46.0860001 104.925143,46.074 C105.057144,46.0619999 105.183142,46.0440001 105.303143,46.02 L105.303143,48 C105.087142,48.0360002 104.847144,48.0599999 104.583143,48.072 C104.319142,48.0840001 104.061144,48.09 103.809143,48.09 C103.413141,48.09 103.038145,48.0630003 102.684143,48.009 C102.330141,47.9549997 102.018144,47.8500008 101.748143,47.694 C101.478142,47.5379992 101.265144,47.3160014 101.109143,47.028 C100.953142,46.7399986 100.875143,46.3620023 100.875143,45.894 L100.875143,40.404 L99.3271429,40.404 L99.3271429,38.694 L100.875143,38.694 L100.875143,35.904 L103.431143,35.904 L103.431143,38.694 Z M108.455714,44.976 C108.455714,45.2520014 108.512714,45.488999 108.626714,45.687 C108.740715,45.885001 108.887713,46.0469994 109.067714,46.173 C109.247715,46.2990006 109.454713,46.3919997 109.688714,46.452 C109.922715,46.5120003 110.165713,46.542 110.417714,46.542 C110.597715,46.542 110.786713,46.5210002 110.984714,46.479 C111.182715,46.4369998 111.362713,46.3710004 111.524714,46.281 C111.686715,46.1909996 111.821714,46.0710007 111.929714,45.921 C112.037715,45.7709993 112.091714,45.5820011 112.091714,45.354 C112.091714,44.9699981 111.836717,44.682001 111.326714,44.49 C110.816712,44.297999 110.105719,44.106001 109.193714,43.914 C108.821712,43.8299996 108.458716,43.7310006 108.104714,43.617 C107.750713,43.5029994 107.435716,43.3530009 107.159714,43.167 C106.883713,42.9809991 106.661715,42.7470014 106.493714,42.465 C106.325713,42.1829986 106.241714,41.838002 106.241714,41.43 C106.241714,40.829997 106.358713,40.3380019 106.592714,39.954 C106.826715,39.5699981 107.135712,39.2670011 107.519714,39.045 C107.903716,38.8229989 108.335712,38.6670005 108.815714,38.577 C109.295717,38.4869996 109.787712,38.442 110.291714,38.442 C110.795717,38.442 111.284712,38.4899995 111.758714,38.586 C112.232717,38.6820005 112.655712,38.8439989 113.027714,39.072 C113.399716,39.3000011 113.708713,39.6029981 113.954714,39.981 C114.200716,40.3590019 114.347714,40.8359971 114.395714,41.412 L111.965714,41.412 C111.929714,40.9199975 111.743716,40.5870009 111.407714,40.413 C111.071713,40.2389991 110.675717,40.152 110.219714,40.152 C110.075714,40.152 109.919715,40.1609999 109.751714,40.179 C109.583713,40.1970001 109.430715,40.2359997 109.292714,40.296 C109.154714,40.3560003 109.037715,40.4429994 108.941714,40.557 C108.845714,40.6710006 108.797714,40.823999 108.797714,41.016 C108.797714,41.2440011 108.881713,41.4299993 109.049714,41.574 C109.217715,41.7180007 109.436713,41.8349995 109.706714,41.925 C109.976716,42.0150005 110.285713,42.0959996 110.633714,42.168 C110.981716,42.2400004 111.335712,42.3179996 111.695714,42.402 C112.067716,42.4860004 112.430713,42.5879994 112.784714,42.708 C113.138716,42.8280006 113.453713,42.986999 113.729714,43.185 C114.005716,43.383001 114.227713,43.6289985 114.395714,43.923 C114.563715,44.2170015 114.647714,44.5799978 114.647714,45.012 C114.647714,45.6240031 114.524716,46.1369979 114.278714,46.551 C114.032713,46.9650021 113.711716,47.2979987 113.315714,47.55 C112.919712,47.8020013 112.466717,47.9789995 111.956714,48.081 C111.446712,48.1830005 110.927717,48.234 110.399714,48.234 C109.859712,48.234 109.331717,48.1800005 108.815714,48.072 C108.299712,47.9639995 107.840716,47.7840013 107.438714,47.532 C107.036712,47.2799987 106.706716,46.9470021 106.448714,46.533 C106.190713,46.1189979 106.049714,45.6000031 106.025714,44.976 L108.455714,44.976 Z M123.832857,37.254 L121.276857,37.254 L121.276857,35.148 L123.832857,35.148 L123.832857,37.254 Z M119.746857,49.08 C119.878858,49.1280002 120.058856,49.152 120.286857,49.152 C120.550858,49.152 120.781856,49.1010005 120.979857,48.999 C121.177858,48.8969995 121.276857,48.6720017 121.276857,48.324 L121.276857,38.694 L123.832857,38.694 L123.832857,48.45 C123.832857,48.9300024 123.781858,49.3439983 123.679857,49.692 C123.577857,50.0400017 123.403858,50.3309988 123.157857,50.565 C122.911856,50.7990012 122.578859,50.9729994 122.158857,51.087 C121.738855,51.2010006 121.20486,51.258 120.556857,51.258 C120.256856,51.258 119.986858,51.2340002 119.746857,51.186 L119.746857,49.08 Z M134.725429,48 L132.295429,48 L132.295429,46.704 L132.241429,46.704 C131.917427,47.2440027 131.497431,47.6339988 130.981429,47.874 C130.465426,48.1140012 129.937431,48.234 129.397429,48.234 C128.713425,48.234 128.152431,48.1440009 127.714429,47.964 C127.276426,47.7839991 126.93143,47.5290016 126.679429,47.199 C126.427427,46.8689983 126.250429,46.4670024 126.148429,45.993 C126.046428,45.5189976 125.995429,44.9940029 125.995429,44.418 L125.995429,38.694 L128.551429,38.694 L128.551429,43.95 C128.551429,44.7180038 128.671427,45.2909981 128.911429,45.669 C129.15143,46.0470019 129.577426,46.236 130.189429,46.236 C130.885432,46.236 131.389427,46.0290021 131.701429,45.615 C132.01343,45.2009979 132.169429,44.5200047 132.169429,43.572 L132.169429,38.694 L134.725429,38.694 L134.725429,48 Z M138.598,44.976 C138.598,45.2520014 138.654999,45.488999 138.769,45.687 C138.883001,45.885001 139.029999,46.0469994 139.21,46.173 C139.390001,46.2990006 139.596999,46.3919997 139.831,46.452 C140.065001,46.5120003 140.307999,46.542 140.56,46.542 C140.740001,46.542 140.928999,46.5210002 141.127,46.479 C141.325001,46.4369998 141.504999,46.3710004 141.667,46.281 C141.829001,46.1909996 141.963999,46.0710007 142.072,45.921 C142.180001,45.7709993 142.234,45.5820011 142.234,45.354 C142.234,44.9699981 141.979003,44.682001 141.469,44.49 C140.958997,44.297999 140.248005,44.106001 139.336,43.914 C138.963998,43.8299996 138.601002,43.7310006 138.247,43.617 C137.892998,43.5029994 137.578001,43.3530009 137.302,43.167 C137.025999,42.9809991 136.804001,42.7470014 136.636,42.465 C136.467999,42.1829986 136.384,41.838002 136.384,41.43 C136.384,40.829997 136.500999,40.3380019 136.735,39.954 C136.969001,39.5699981 137.277998,39.2670011 137.662,39.045 C138.046002,38.8229989 138.477998,38.6670005 138.958,38.577 C139.438002,38.4869996 139.929997,38.442 140.434,38.442 C140.938003,38.442 141.426998,38.4899995 141.901,38.586 C142.375002,38.6820005 142.797998,38.8439989 143.17,39.072 C143.542002,39.3000011 143.850999,39.6029981 144.097,39.981 C144.343001,40.3590019 144.49,40.8359971 144.538,41.412 L142.108,41.412 C142.072,40.9199975 141.886002,40.5870009 141.55,40.413 C141.213998,40.2389991 140.818002,40.152 140.362,40.152 C140.217999,40.152 140.062001,40.1609999 139.894,40.179 C139.725999,40.1970001 139.573001,40.2359997 139.435,40.296 C139.296999,40.3560003 139.18,40.4429994 139.084,40.557 C138.988,40.6710006 138.94,40.823999 138.94,41.016 C138.94,41.2440011 139.023999,41.4299993 139.192,41.574 C139.360001,41.7180007 139.578999,41.8349995 139.849,41.925 C140.119001,42.0150005 140.427998,42.0959996 140.776,42.168 C141.124002,42.2400004 141.477998,42.3179996 141.838,42.402 C142.210002,42.4860004 142.572998,42.5879994 142.927,42.708 C143.281002,42.8280006 143.595999,42.986999 143.872,43.185 C144.148001,43.383001 144.369999,43.6289985 144.538,43.923 C144.706001,44.2170015 144.79,44.5799978 144.79,45.012 C144.79,45.6240031 144.667001,46.1369979 144.421,46.551 C144.174999,46.9650021 143.854002,47.2979987 143.458,47.55 C143.061998,47.8020013 142.609003,47.9789995 142.099,48.081 C141.588997,48.1830005 141.070003,48.234 140.542,48.234 C140.001997,48.234 139.474003,48.1800005 138.958,48.072 C138.441997,47.9639995 137.983002,47.7840013 137.581,47.532 C137.178998,47.2799987 136.849001,46.9470021 136.591,46.533 C136.332999,46.1189979 136.192,45.6000031 136.168,44.976 L138.598,44.976 Z M149.472571,38.694 L151.344571,38.694 L151.344571,40.404 L149.472571,40.404 L149.472571,45.012 C149.472571,45.4440022 149.544571,45.7319993 149.688571,45.876 C149.832572,46.0200007 150.120569,46.092 150.552571,46.092 C150.696572,46.092 150.834571,46.0860001 150.966571,46.074 C151.098572,46.0619999 151.224571,46.0440001 151.344571,46.02 L151.344571,48 C151.12857,48.0360002 150.888573,48.0599999 150.624571,48.072 C150.36057,48.0840001 150.102573,48.09 149.850571,48.09 C149.454569,48.09 149.079573,48.0630003 148.725571,48.009 C148.37157,47.9549997 148.059573,47.8500008 147.789571,47.694 C147.51957,47.5379992 147.306572,47.3160014 147.150571,47.028 C146.994571,46.7399986 146.916571,46.3620023 146.916571,45.894 L146.916571,40.404 L145.368571,40.404 L145.368571,38.694 L146.916571,38.694 L146.916571,35.904 L149.472571,35.904 L149.472571,38.694 Z M157.541714,35.148 L160.097714,35.148 L160.097714,48 L157.541714,48 L157.541714,35.148 Z M164.690286,37.254 L162.134286,37.254 L162.134286,35.148 L164.690286,35.148 L164.690286,37.254 Z M162.134286,38.694 L164.690286,38.694 L164.690286,48 L162.134286,48 L162.134286,38.694 Z M166.888857,35.148 L169.444857,35.148 L169.444857,42.042 L172.666857,38.694 L175.690857,38.694 L172.180857,42.114 L176.086857,48 L172.990857,48 L170.434857,43.842 L169.444857,44.796 L169.444857,48 L166.888857,48 L166.888857,35.148 Z M183.199429,42.348 C183.079428,41.6999968 182.86643,41.2080017 182.560429,40.872 C182.254427,40.5359983 181.789432,40.368 181.165429,40.368 C180.757427,40.368 180.41843,40.4369993 180.148429,40.575 C179.878427,40.7130007 179.662429,40.883999 179.500429,41.088 C179.338428,41.292001 179.224429,41.5079989 179.158429,41.736 C179.092428,41.9640011 179.053429,42.1679991 179.041429,42.348 L183.199429,42.348 Z M179.041429,43.968 C179.077429,44.7960041 179.287427,45.3959981 179.671429,45.768 C180.05543,46.1400019 180.607425,46.326 181.327429,46.326 C181.843431,46.326 182.287427,46.1970013 182.659429,45.939 C183.03143,45.6809987 183.259428,45.4080014 183.343429,45.12 L185.593429,45.12 C185.233427,46.2360056 184.681432,47.0339976 183.937429,47.514 C183.193425,47.9940024 182.293434,48.234 181.237429,48.234 C180.505425,48.234 179.845432,48.1170012 179.257429,47.883 C178.669426,47.6489988 178.171431,47.3160022 177.763429,46.884 C177.355427,46.4519978 177.04043,45.936003 176.818429,45.336 C176.596427,44.735997 176.485429,44.0760036 176.485429,43.356 C176.485429,42.6599965 176.599427,42.012003 176.827429,41.412 C177.05543,40.811997 177.379426,40.2930022 177.799429,39.855 C178.219431,39.4169978 178.720426,39.0720013 179.302429,38.82 C179.884431,38.5679987 180.529425,38.442 181.237429,38.442 C182.029433,38.442 182.719426,38.5949985 183.307429,38.901 C183.895432,39.2070015 184.378427,39.6179974 184.756429,40.134 C185.13443,40.6500026 185.407428,41.2379967 185.575429,41.898 C185.743429,42.5580033 185.803429,43.2479964 185.755429,43.968 L179.041429,43.968 Z M196.758571,49.152 C196.48257,49.9080038 196.098574,50.4479984 195.606571,50.772 C195.114569,51.0960016 194.430576,51.258 193.554571,51.258 C193.29057,51.258 193.029573,51.2490001 192.771571,51.231 C192.51357,51.2129999 192.252573,51.1920001 191.988571,51.168 L191.988571,49.062 C192.228573,49.0860001 192.47457,49.1099999 192.726571,49.134 C192.978573,49.1580001 193.23057,49.1640001 193.482571,49.152 C193.818573,49.1159998 194.067571,48.9840011 194.229571,48.756 C194.391572,48.5279989 194.472571,48.2760014 194.472571,48 C194.472571,47.795999 194.436572,47.6040009 194.364571,47.424 L191.106571,38.694 L193.824571,38.694 L195.930571,45.066 L195.966571,45.066 L198.000571,38.694 L200.646571,38.694 L196.758571,49.152 Z M203.727143,43.356 C203.727143,43.7280019 203.763142,44.0909982 203.835143,44.445 C203.907143,44.7990018 204.030142,45.1169986 204.204143,45.399 C204.378144,45.6810014 204.609141,45.9059992 204.897143,46.074 C205.185144,46.2420008 205.545141,46.326 205.977143,46.326 C206.409145,46.326 206.772141,46.2420008 207.066143,46.074 C207.360144,45.9059992 207.594142,45.6810014 207.768143,45.399 C207.942144,45.1169986 208.065142,44.7990018 208.137143,44.445 C208.209143,44.0909982 208.245143,43.7280019 208.245143,43.356 C208.245143,42.9839981 208.209143,42.6180018 208.137143,42.258 C208.065142,41.8979982 207.942144,41.5800014 207.768143,41.304 C207.594142,41.0279986 207.360144,40.8030009 207.066143,40.629 C206.772141,40.4549991 206.409145,40.368 205.977143,40.368 C205.545141,40.368 205.185144,40.4549991 204.897143,40.629 C204.609141,40.8030009 204.378144,41.0279986 204.204143,41.304 C204.030142,41.5800014 203.907143,41.8979982 203.835143,42.258 C203.763142,42.6180018 203.727143,42.9839981 203.727143,43.356 Z M201.171143,43.356 C201.171143,42.6119963 201.285142,41.937003 201.513143,41.331 C201.741144,40.724997 202.065141,40.2090021 202.485143,39.783 C202.905145,39.3569979 203.40914,39.0270012 203.997143,38.793 C204.585146,38.5589988 205.245139,38.442 205.977143,38.442 C206.709147,38.442 207.37214,38.5589988 207.966143,38.793 C208.560146,39.0270012 209.067141,39.3569979 209.487143,39.783 C209.907145,40.2090021 210.231142,40.724997 210.459143,41.331 C210.687144,41.937003 210.801143,42.6119963 210.801143,43.356 C210.801143,44.1000037 210.687144,44.771997 210.459143,45.372 C210.231142,45.972003 209.907145,46.4849979 209.487143,46.911 C209.067141,47.3370021 208.560146,47.6639989 207.966143,47.892 C207.37214,48.1200011 206.709147,48.234 205.977143,48.234 C205.245139,48.234 204.585146,48.1200011 203.997143,47.892 C203.40914,47.6639989 202.905145,47.3370021 202.485143,46.911 C202.065141,46.4849979 201.741144,45.972003 201.513143,45.372 C201.285142,44.771997 201.171143,44.1000037 201.171143,43.356 Z M221.135714,48 L218.705714,48 L218.705714,46.704 L218.651714,46.704 C218.327713,47.2440027 217.907717,47.6339988 217.391714,47.874 C216.875712,48.1140012 216.347717,48.234 215.807714,48.234 C215.123711,48.234 214.562716,48.1440009 214.124714,47.964 C213.686712,47.7839991 213.341716,47.5290016 213.089714,47.199 C212.837713,46.8689983 212.660715,46.4670024 212.558714,45.993 C212.456714,45.5189976 212.405714,44.9940029 212.405714,44.418 L212.405714,38.694 L214.961714,38.694 L214.961714,43.95 C214.961714,44.7180038 215.081713,45.2909981 215.321714,45.669 C215.561715,46.0470019 215.987711,46.236 216.599714,46.236 C217.295718,46.236 217.799713,46.0290021 218.111714,45.615 C218.423716,45.2009979 218.579714,44.5200047 218.579714,43.572 L218.579714,38.694 L221.135714,38.694 L221.135714,48 Z M223.154286,45.228 L225.980286,45.228 L225.980286,48 L223.154286,48 L223.154286,45.228 Z M225.890286,38.604 L225.188286,44.148 L223.910286,44.148 L223.226286,38.604 L223.226286,35.148 L225.890286,35.148 L225.890286,38.604 Z" id="FinstreamisbuiltforcleverAccountantsjustlikeyou!" fill="#0072FF" fill-rule="nonzero"></path>
            </g>
        </g>
    </g>
</svg>