<?xml version="1.0" encoding="UTF-8"?>
<svg width="366px" height="202px" viewBox="0 0 366 202" version="1.1" xmlns="http://www.w3.org/2000/svg" xmlns:xlink="http://www.w3.org/1999/xlink">
    <!-- Generator: Sketch 56.2 (81672) - https://sketch.com -->
    <title>verify-email-banner</title>
    <desc>Created with Sketch.</desc>
    <defs>
        <polygon id="path-1" points="0.198557216 0.133129286 23.6962693 0.133129286 23.6962693 22.9030759 0.198557216 22.9030759"></polygon>
        <polygon id="path-3" points="0.167477143 0.1362015 22.8788004 0.1362015 22.8788004 16.3369467 0.167477143 16.3369467"></polygon>
        <polygon id="path-5" points="0.0813397032 0.0613162219 25.116336 0.0613162219 25.116336 21.5378467 0.0813397032 21.5378467"></polygon>
    </defs>
    <g id="verify-email-banner" stroke="none" stroke-width="1" fill="none" fill-rule="evenodd">
        <g id="Group-3" transform="translate(-4.000000, 0.000000)">
            <g id="Hero">
                <polygon id="Fill-4" fill="#DFDEE5" points="111.24 113.4 136.426023 201.96 139.32 201.96 118.725707 113.4"></polygon>
                <polygon id="Fill-6" fill="#DFDEE5" points="84.78 113.4 59.5944908 201.96 56.7 201.96 77.2944455 113.4"></polygon>
                <path d="M140.94,96.3902864 C140.94,119.801438 121.961181,138.78 98.5502864,138.78 C75.1382458,138.78 56.16,119.801438 56.16,96.3902864 C56.16,72.979135 75.1382458,54 98.5502864,54 C121.961181,54 140.94,72.979135 140.94,96.3902864" id="Fill-8" fill="#00CCFF"></path>
                <path d="M120.96,113.557218 C120.96,116.367947 120.410662,119.044831 119.415535,121.5 L79.8444652,121.5 C78.8505082,119.044831 78.3,116.367947 78.3,113.557218 C78.3,101.836538 87.8476029,92.34 99.630585,92.34 C111.406547,92.34 120.96,101.836538 120.96,113.557218" id="Fill-23" fill="#40327A"></path>
                <path d="M104.76,113.4 C104.76,116.680068 102.100068,119.34 98.82,119.34 C95.539338,119.34 92.88,116.680068 92.88,113.4 C92.88,110.119338 95.539338,107.46 98.82,107.46 C102.100068,107.46 104.76,110.119338 104.76,113.4" id="Fill-24" fill="#40327A"></path>
                <path d="M152.504832,83.0725903 C154.395296,79.5192662 153.046644,75.1056638 149.492273,73.2151885 C145.938971,71.3247132 141.525395,72.6733734 139.634932,76.2272317 C137.745002,79.7810901 139.09312,84.1946926 142.647491,86.0851679 C146.201327,87.9751088 150.614368,86.6264487 152.504832,83.0725903" id="Fill-25" fill="#7760DB"></path>
                <polygon id="Fill-26" fill="#E9EBF2" points="109.08 68.1844019 142.950621 85.86 151.74 72.8707177 121.967655 49.14"></polygon>
                <path d="M125.029928,63.1042188 C122.089469,68.6325174 115.223861,70.7305725 109.695547,67.7895539 C104.167233,64.8496691 102.069739,57.9840799 105.010199,52.4557812 C107.950659,46.9274826 114.8157,44.8294275 120.344014,47.7704461 C125.872327,50.7108978 127.970388,57.5759201 125.029928,63.1042188" id="Fill-27" fill="#E9EBF2"></path>
                <polygon id="Fill-28" fill="#E9EBF2" points="90.18 66.8274388 58.4091623 88.56 48.06 76.496836 75.0055518 49.14"></polygon>
                <path d="M72.7582071,64.2355748 C76.323756,69.3840466 83.3873868,70.6670542 88.5358603,67.1020734 C93.6837669,63.5365256 94.9673418,56.4723301 91.4017929,51.3244252 C87.836244,46.1759534 80.7726132,44.8929458 75.6241397,48.4579266 C70.4762331,52.0234744 69.1926582,59.0871029 72.7582071,64.2355748" id="Fill-29" fill="#E9EBF2"></path>
                <path d="M92.88,120.69 C92.88,124.716323 89.6163231,127.98 85.59,127.98 C81.564211,127.98 78.3,124.716323 78.3,120.69 C78.3,116.663677 81.564211,113.4 85.59,113.4 C89.6163231,113.4 92.88,116.663677 92.88,120.69" id="Fill-30" fill="#40327A"></path>
                <path d="M111.509733,113.4 C115.536204,113.4 118.8,116.663557 118.8,120.689733 C118.8,124.715909 115.536204,127.98 111.509733,127.98 C107.483796,127.98 104.22,124.715909 104.22,120.689733 C104.22,116.663557 107.483796,113.4 111.509733,113.4" id="Fill-31" fill="#40327A"></path>
                <path d="M122.029982,54.9702631 L119.189371,112.86 L76.8305792,112.86 L73.9899685,54.9702631 C73.762255,50.3281643 77.4649242,46.44 82.112721,46.44 L113.907229,46.44 C118.555607,46.44 122.258276,50.3281643 122.029982,54.9702631" id="Fill-32" fill="#E9EBF2"></path>
                <path d="M120.96,113.4 L120.568028,120.689466 L120.549307,121.046756 C120.339865,124.929949 116.830839,127.98 112.572971,127.98 L86.6870289,127.98 C82.4285758,127.98 78.9195496,124.929415 78.710693,121.046756 L78.6913869,120.689466 L78.3,113.4 L120.96,113.4 Z" id="Fill-33" fill="#40327A"></path>
                <path d="M119.88,122.310292 C119.88,126.038274 116.857821,129.06 113.130584,129.06 C109.402179,129.06 106.38,126.038274 106.38,122.310292 C106.38,118.581726 109.402179,115.56 113.130584,115.56 C116.857821,115.56 119.88,118.581726 119.88,122.310292" id="Fill-35" fill="#40327A"></path>
                <polygon id="Fill-36" fill="#40327A" points="110.028444 196.56 106.38 122.04 119.88 122.04 119.88 196.56"></polygon>
                <path d="M110.16,200.34 L110.16,194.94 L119.970261,194.94 L125.59969,197.79444 C126.068422,198.03258 126.36,198.48834 126.36,198.9846 C126.36,199.73358 125.707144,200.34 124.90153,200.34 L110.16,200.34 Z" id="Fill-37" fill="#81482B"></path>
                <path d="M146.528872,128.246988 C148.916908,129.096834 150.163124,131.721406 149.31274,134.108913 C148.463442,136.496419 145.838342,137.743186 143.451393,136.892796 C141.063357,136.042951 139.817141,133.418923 140.666982,131.030872 C141.516823,128.643366 144.141379,127.397143 146.528872,128.246988" id="Fill-38" fill="#40327A"></path>
                <path d="M78.1330229,102.452882 C81.6444475,103.702716 83.4771801,107.562499 82.227351,111.072772 C80.9775219,114.584212 77.1177556,116.417536 73.6069145,115.167118 C70.0960735,113.917284 68.2627574,110.057501 69.5125865,106.547228 C70.7624156,103.035788 74.6221819,101.202464 78.1330229,102.452882" id="Fill-39" fill="#40327A"></path>
                <polygon id="Fill-40" fill="#40327A" points="144.140766 136.62 73.44 115.248804 77.9333786 102.6 147.42 127.389682"></polygon>
                <path d="M147.944715,143.754827 L152.82,129.920538 L147.424081,127.98 L144.18,137.185695 L145.170292,143.495048 C145.252769,144.019814 145.612459,144.457795 146.107891,144.635418 C146.856481,144.904455 147.678384,144.510445 147.944715,143.754827" id="Fill-41" fill="#81482B"></path>
                <polygon id="Fill-42" fill="#FF95A9" points="106.599184 46.44 92.88 45.6177747 93.7413656 30.24 107.46 31.0622253"></polygon>
                <path d="M106.908056,46.3060545 C106.683984,50.1765033 103.36445,53.1321289 99.4940015,52.9080562 C95.6235527,52.6839835 92.6673654,49.3644503 92.8919997,45.4940015 C93.1160724,41.6235527 96.4356056,38.6673654 100.306054,38.8919997 C104.176503,39.1160724 107.132129,42.4356056 106.908056,46.3060545" id="Fill-43" fill="#FF95A9"></path>
                <polygon id="Fill-44" fill="#40327A" points="80.1588675 125.28 70.74 113.141684 80.0578252 103.68 91.8 114.201534"></polygon>
                <polygon id="Fill-45" fill="#DFDEE5" points="18.9 90.72 18.33276 96.4751852 7.58761399 200.88 4.86 200.88 12.9250721 90.72"></polygon>
                <polygon id="Fill-46" fill="#DFDEE5" points="242.66 90.72 243.22724 96.4751852 253.971846 200.88 256.7 200.88 248.634928 90.72"></polygon>
                <polygon id="Fill-47" fill="#828894" points="4.86 95.58 256.62 95.58 256.62 90.72 4.86 90.72"></polygon>
                <path d="M60.3323637,84.3956289 C59.5007677,88.6384794 55.3875523,91.4035346 51.1446332,90.5725259 C46.9017141,89.7403694 44.1360402,85.6272206 44.9676363,81.384944 C45.7992323,77.1415196 49.9124477,74.3764644 54.1553668,75.2074731 C58.3982859,76.0390557 61.1639598,80.1522045 60.3323637,84.3956289" id="Fill-48" fill="#E9EBF2"></path>
                <polygon id="Fill-50" fill="#D2D3D6" points="187.38 50.76 185.929529 81.9288 185.521766 90.72 129.6 90.72 131.458234 50.76"></polygon>
                <path d="M164.155489,71.55 C164.050884,73.7867571 162.155862,75.6 159.921596,75.6 C157.68733,75.6 155.959906,73.7867571 156.064511,71.55 C156.169116,69.3138214 158.064138,67.5 160.298404,67.5 C162.53267,67.5 164.260094,69.3138214 164.155489,71.55" id="Fill-51" fill="#FFFFFF" opacity="0.475957961"></path>
                <path d="M114.282006,18.7346386 L112.311474,18.9 L111.24,5.04815099 L113.210533,4.88278958 C116.884545,4.57471903 120.102229,7.42607061 120.398108,11.2509025 C120.693987,15.0763007 117.956019,18.426568 114.282006,18.7346386" id="Fill-53" fill="#40327A"></path>
                <path d="M98.82,34.6433437 L93.3422721,35.082055 C90.3170957,35.3245799 87.6668163,33.0804724 87.4231333,30.0696733 L86.94,24.0980244 L97.8954558,23.22 L98.82,34.6433437 Z" id="Fill-54" fill="#40327A"></path>
                <path d="M114.398088,18.4354146 L108.452246,18.9 L106.92,0.436250617 L112.236019,0.020939441 C115.865056,-0.262387251 119.044391,2.36263748 119.336334,5.88457011 L119.860381,12.2051604 C120.125124,15.3897993 117.679574,18.1790714 114.398088,18.4354146" id="Fill-55" fill="#40327A"></path>
                <path d="M113.923481,38.4607961 L95.1599099,39.96 L93.4582672,18.9948775 C92.9408325,12.6177617 97.7313328,7.03192469 104.15814,6.51791191 C110.36619,6.02184327 115.874215,10.4488362 116.67341,16.578207 L118.755399,32.5415453 C119.144496,35.522009 116.942336,38.2194184 113.923481,38.4607961" id="Fill-56" fill="#FF95A9"></path>
                <path d="M97.6560718,4.98559052 L99.3086016,4.86 L100.98,24.4177128 L88.2996492,25.38 L87.5162953,16.2124655 C87.0257101,10.4742977 91.5657541,5.44780951 97.6560718,4.98559052" id="Fill-57" fill="#40327A"></path>
                <path d="M94.3492821,26.990243 L97.2,26.7517026 L96.9703064,23.7917319 C96.8433981,22.1568042 95.4641876,20.9379607 93.8904194,21.069757 C92.3161267,21.2015533 91.1424868,22.6333404 91.2693951,24.2682681 C91.3963034,25.9031958 92.7749895,27.1220393 94.3492821,26.990243" id="Fill-58" fill="#FF95A9"></path>
                <path d="M118.26,14.0661057 L106.258708,15.0892786 C101.367698,15.5060584 97.0681463,11.6331457 96.6738414,6.4551026 C96.4865756,3.99136125 98.2214009,1.83297116 100.549428,1.6347391 C102.876874,1.43589141 104.915861,3.27230831 105.103127,5.73666528 C105.1229,5.99399758 105.336337,6.186689 105.580015,6.16575766 L117.581307,5.14258472 L118.26,14.0661057 Z" id="Fill-59" fill="#40327A"></path>
                <path d="M113.935155,8.70172373 L108.124723,9.16662088 C105.85986,9.34763283 103.8757,7.67074262 103.693469,5.4204605 C103.511239,3.17074054 105.199416,1.19928429 107.464279,1.01827233 L113.274711,0.55337518 C115.539574,0.372363229 117.5243,2.0498156 117.706531,4.29953556 C117.888761,6.54925553 116.200584,8.52071178 113.935155,8.70172373" id="Fill-60" fill="#40327A"></path>
                <path d="M119.304671,37.7592622 C119.613616,40.1447888 117.860411,42.3068171 115.452149,42.5002069 L107.087984,43.172439 C102.43929,43.5453223 98.3678356,40.0909408 97.9938494,35.4559551 L97.2,25.633607 L100.354492,25.38 C100.510706,27.3115818 102.207581,28.751583 104.145457,28.5958289 L117.967845,27.4858642 L119.304671,37.7592622 Z" id="Fill-61" fill="#40327A"></path>
                <path d="M112.145229,85.1877293 C111.475788,82.8987337 109.076601,81.5852605 106.787548,82.2546838 C104.497955,82.9246469 103.184989,85.3232335 103.854969,87.6122291 C104.524409,89.9017645 106.923056,91.2146978 109.212109,90.5452746 C111.502242,89.8758513 112.814669,87.4767249 112.145229,85.1877293" id="Fill-62" fill="#FF95A9"></path>
                <path d="M103.52712,85.8795134 C104.11285,87.8824267 102.964063,89.9817066 100.960613,90.5668344 C98.9577928,91.1532219 96.8592402,90.0043811 96.27288,88.0008379 C95.6871495,85.9972948 96.835937,83.8986447 98.839387,83.3128871 C100.842207,82.7271294 102.94076,83.8759703 103.52712,85.8795134" id="Fill-63" fill="#FF95A9"></path>
                <polygon id="Fill-64" fill="#FF95A9" points="108 90.7161448 100.288333 90.72 99.36 84.2427537 106.761855 82.08"></polygon>
                <polygon id="Fill-65" fill="#E9EBF2" points="53.9138751 76.14 72.9 78.57 99.36 84.3040018 98.6845537 90.716764 96.2981335 90.716764 92.7732214 90.7156853 52.38 90.72"></polygon>
                <polygon id="Fill-66" fill="#FF95A9" points="100.265257 90.72 100.98 83.7561332 97.7418678 83.16 97.74 90.72"></polygon>
                <polygon id="Fill-67" fill="#E9EBF2" points="72.9 81.54 78.84 81.54 78.84 75.6 72.9 75.6"></polygon>
                <polygon id="Fill-68" fill="#FFFFFF" points="96.9809016 83.16 68.04 78.1978782 68.2585293 77.22 97.2 82.1821218"></polygon>
                <polygon id="Fill-69" fill="#7760DB" points="104.968171 126.36 84.78 119.956157 85.1118289 118.8 105.3 125.203843"></polygon>
                <path d="M115.008135,29.7 C115.153674,31.3374197 113.943376,32.7832208 112.306741,32.928288 C110.669024,33.072814 109.224998,31.8630179 109.08,30.2250569 L115.008135,29.7 Z" id="Fill-90" fill="#FFFFFF"></path>
                <path d="M22.41,7.56 L22.41,12.42 L22.41,7.56 Z" id="Fill-110" fill="#333854"></path>
                <polygon id="Fill-111" fill="#FFFFFF" points="22.14 12.42 22.68 12.42 22.68 7.56 22.14 7.56"></polygon>
                <polygon id="Fill-133" fill="#A5FBFF" points="38.8508108 90.72 30.8091892 90.72 29.7 72.9 39.96 72.9"></polygon>
                <polygon id="Fill-144" fill="#FFFFFF" points="130.810311 90.72 129.6 90.6655953 130.810311 50.22 132.84 50.22"></polygon>
                <path d="M237.06,96.39 L242.46,96.39 L237.06,96.39 Z" id="Fill-151" fill="#F8F7FF"></path>
                <path d="M211.68,202.23 L245.16,202.23 L211.68,202.23 Z" id="Fill-155" fill="#F8F7FF"></path>
                <path d="M0,202.23 L70.74,202.23 L0,202.23 Z" id="Fill-157" fill="#F8F7FF"></path>
                <path d="M197.1,202.23 L205.74,202.23 L197.1,202.23 Z" id="Fill-161" fill="#F8F7FF"></path>
                <polygon id="Fill-164" fill="#C4B8FF" points="169.02 3.78 169.56 3.78 169.56 1.08 169.02 1.08"></polygon>
                <path d="M0,174.15 L23.76,174.15 L0,174.15 Z" id="Fill-159" fill="#F8F7FF"></path>
            </g>
            <g id="Group-55" transform="translate(273.000000, 157.000000)">
                <path d="M16.8,13.218592 C16.8,13.218592 20.1207501,11.048022 24.6146568,2.48315322 C25.1900926,1.38880445 24.6966997,11.4086217 19.1714371,14.1755894 C17.4881383,15.0176858 16.8,13.218592 16.8,13.218592" id="Fill-3" fill="#085D61"></path>
                <path d="M24.614311,2.48124681 C24.2084576,3.2387754 23.8118443,3.94352928 23.4260348,4.6013723 C23.4220545,4.81765319 23.4182163,5.03393409 23.4170791,5.24912403 C23.4027214,6.54408201 23.3393201,7.87476861 22.9340354,9.11381538 C22.5486523,10.2964055 21.9233112,11.4288119 21.1481383,12.3945756 C21.0382523,12.5331263 20.9205477,12.6678586 20.8,12.8 C24.7914365,9.20054593 25.1279181,1.52830174 24.614311,2.48124681" id="Fill-5" fill="#054D50"></path>
                <path d="M20,13.2575664 C20,13.2575664 16.64366,11.046921 12.1983851,2.48384623 C11.6309896,1.38943313 11.9598178,11.319385 17.5586033,14.1616828 C19.2636919,15.0269942 20,13.2575664 20,13.2575664" id="Fill-7" fill="#085D61"></path>
                <path d="M14.9490974,12.2598217 C14.634484,11.4882988 14.4411182,10.6849099 14.3297227,9.84656669 C14.157375,8.54693811 13.9649288,7.22204132 13.8750768,5.90107513 C13.3353078,4.89104839 12.7672959,3.75762852 12.179711,2.48537384 C11.7363622,1.52518164 11.8975441,8.89942972 15.2,12.8 C15.108703,12.6245263 15.0239741,12.4445604 14.9490974,12.2598217" id="Fill-9" fill="#054D50"></path>
                <path d="M17.6,11.1338751 C17.6,11.1338751 19.5922256,9.54158127 22.2888798,3.2609517 C22.6338305,2.45862882 22.3384433,9.80624651 19.0230996,11.8354392 C18.0144536,12.4528989 17.6,11.1338751 17.6,11.1338751" id="Fill-11" fill="#63BE7A"></path>
                <path d="M22.2883347,3.26256499 C22.0454835,3.84483907 21.8076233,4.38696614 21.5753246,4.89307478 C21.5741838,5.05935746 21.5714743,5.22507067 21.5697631,5.39135334 C21.5624904,6.38791045 21.5229896,7.41123223 21.2812792,8.36436793 C21.0489805,9.27365511 20.6746502,10.1450731 20.2094824,10.8869387 C20.1437428,10.9948516 20.0724418,11.0987783 20,11.2 C22.3952862,8.43113725 22.5969255,2.52909895 22.2883347,3.26256499" id="Fill-13" fill="#4AA261"></path>
                <path d="M19.2,11.162877 C19.2,11.162877 17.1851034,9.54135541 14.5185682,3.2615845 C14.179064,2.45831483 14.3763317,9.74107321 17.734978,11.824846 C18.7575671,12.4601493 19.2,11.162877 19.2,11.162877" id="Fill-15" fill="#63BE7A"></path>
                <path d="M16.6108744,10.7838038 C16.3759501,10.1907241 16.2317995,9.5730244 16.1474508,8.92733403 C16.019445,7.92787686 15.8746354,6.90951499 15.8057726,5.89276516 C15.4023156,5.11591435 14.9769478,4.24468665 14.5342818,3.26574619 C14.2028178,2.52670476 14.3230806,8.19913716 16.8,11.2 C16.7317962,11.0642966 16.6682052,10.9258087 16.6108744,10.7838038" id="Fill-17" fill="#4AA261"></path>
                <path d="M16,16.5885397 C16,16.5885397 20.9810788,13.2604694 27.723215,0.127538641 C28.5837928,-1.55070808 27.843628,13.8128739 19.5583379,18.0551758 C17.0341932,19.3481463 16,16.5885397 16,16.5885397" id="Fill-19" fill="#439B7D"></path>
                <path d="M27.7413007,0.125130496 C27.1720645,1.2892095 26.6157864,2.37478151 26.0755078,3.38630871 C26.0708798,3.71902224 26.0673097,4.05075966 26.0636074,4.38249708 C26.0445667,6.37501324 25.9557103,8.42205203 25.3885897,10.3285312 C24.8477821,12.1473001 23.9733664,13.8909086 22.889768,15.3751512 C22.7342693,15.5891978 22.5700436,15.7962722 22.4,16 C27.9876392,10.462537 28.4577054,-1.34182101 27.7413007,0.125130496" id="Fill-21" fill="#39876C"></path>
                <path d="M20.8,16.6488679 C20.8,16.6488679 15.7635727,13.2588219 9.09843628,0.128621692 C8.24524096,-1.54993385 8.74026205,13.6772645 17.1388402,18.034387 C19.696401,19.3614959 20.8,16.6488679 20.8,16.6488679" id="Fill-23" fill="#439B7D"></path>
                <path d="M14.0228868,15.1678783 C13.5531653,13.9824961 13.2619799,12.7461559 13.0947088,11.4554128 C12.8357463,9.45585184 12.5477046,7.41882604 12.4126564,5.38567591 C11.6026292,3.8323917 10.7517339,2.08862526 9.86966355,0.131122555 C9.20503257,-1.34464817 9.44447787,9.99801564 14.4,16 C14.26338,15.7291334 14.1369769,15.4532428 14.0228868,15.1678783" id="Fill-25" fill="#39876C"></path>
                <path d="M14.4,23.3948932 C14.4,23.3948932 21.7062184,19.3421917 31.5937843,3.3552886 C32.856563,1.31206746 31.7707828,20.0150302 19.6186263,25.1804706 C15.9160991,26.7538624 14.4,23.3948932 14.4,23.3948932" id="Fill-27" fill="#085D61"></path>
                <path d="M31.5933011,3.35647426 C30.6976905,4.81210992 29.8251933,6.16846537 28.9760931,7.43350578 C28.9688613,7.84854828 28.9621967,8.26415971 28.9555321,8.67806432 C28.925754,11.1688882 28.7860807,13.728554 27.8960003,16.1115635 C27.0457657,18.384483 25.6708701,20.5631005 23.9677068,22.4188439 C23.7216833,22.6865307 23.4647411,22.9461101 23.2,23.2 C31.9809831,16.2788322 32.7193373,1.52235057 31.5933011,3.35647426" id="Fill-29" fill="#054D50"></path>
                <path d="M21.6,23.4681484 C21.6,23.4681484 14.5497643,19.3413401 5.21721242,3.35645924 C4.02416152,1.31388766 4.71624989,19.85041 16.4726312,25.1547485 C20.0544097,26.7707415 21.6,23.4681484 21.6,23.4681484" id="Fill-31" fill="#085D61"></path>
                <path d="M11.4349922,21.4022742 C10.728565,19.9796225 10.2925103,18.4954035 10.0426469,16.9476495 C9.6536427,14.5475132 9.22214567,12.1030992 9.01799221,9.66346431 C7.80312496,7.79944047 6.52713233,5.70629674 5.20449136,3.3573259 C4.20691418,1.58649623 4.56870682,15.1981856 12,22.4 C11.7947742,22.0759992 11.6052318,21.7444079 11.4349922,21.4022742" id="Fill-33" fill="#054D50"></path>
                <path d="M16.8,20.103878 C16.8,20.103878 21.4495242,17.3538858 27.7407396,6.50534047 C28.5456776,5.11912522 27.8559843,17.8099465 20.1202499,21.3154054 C17.7648333,22.3828049 16.8,20.103878 16.8,20.103878" id="Fill-35" fill="#63BE7A"></path>
                <path d="M27.7406,6.50639075 C27.1723434,7.49666706 26.615709,8.41856219 26.074662,9.27902544 C26.0726111,9.5613063 26.0661847,9.84372616 26.0624929,10.1254511 C26.0437607,11.8183024 25.9550219,13.5593819 25.3878591,15.1799604 C24.8473591,16.7250694 23.9729604,18.2073567 22.8888155,19.4696289 C22.7344455,19.6508668 22.5699574,19.8279351 22.4,20 C27.9879474,15.293512 28.4584409,5.25926804 27.7406,6.50639075" id="Fill-37" fill="#4AA261"></path>
                <path d="M20.8,20.0772827 C20.8,20.0772827 16.1001836,17.1291854 9.87834363,5.71178389 C9.0825691,4.25258835 9.54397872,17.4935537 17.3817994,21.2820375 C19.769821,22.4361337 20.8,20.0772827 20.8,20.0772827" id="Fill-39" fill="#63BE7A"></path>
                <path d="M14.0239097,18.4936721 C13.5526118,17.4854702 13.2621136,16.4347771 13.0944507,15.3377298 C12.8352369,13.6372207 12.5479889,11.9058088 12.4114751,10.1784029 C11.6014657,8.85773999 10.7513689,7.37569609 9.86998773,5.71138326 C9.20448263,4.45739013 9.44514249,14.0987588 14.4,19.2 C14.2640279,18.9698032 14.1360461,18.7350282 14.0239097,18.4936721" id="Fill-41" fill="#4AA261"></path>
                <path d="M13.6,29.0856278 C13.6,29.0856278 23.2313283,23.731247 36.2642675,2.60525664 C37.9293169,-0.0950790767 36.4985118,24.6194931 20.4785348,31.4456075 C15.5999456,33.5248885 13.6,29.0856278 13.6,29.0856278" id="Fill-43" fill="#439B7D"></path>
                <path d="M36.2446146,2.60656962 C35.0250515,4.52813203 33.8327583,6.31701176 32.6747348,7.98694437 C32.6672976,8.53622518 32.6569437,9.08380675 32.6484857,9.6308219 C32.6069246,12.9181521 32.4172018,16.2973832 31.2027427,19.4425433 C30.0445734,22.443834 28.1687824,25.3195223 25.8474856,27.7694082 C25.5136843,28.1222846 25.1610712,28.4658152 24.8,28.8 C36.7732426,19.6631619 37.7820837,0.185429303 36.2446146,2.60656962" id="Fill-45" fill="#39876C"></path>
                <path d="M22.4,29.1830839 C22.4,29.1830839 13.0006042,23.7291062 0.556733071,2.60683863 C-1.03491517,-0.0929089325 -0.112081579,24.4024058 15.5638611,31.4114381 C20.3389448,33.5472694 22.4,29.1830839 22.4,29.1830839" id="Fill-47" fill="#439B7D"></path>
                <path d="M9.58368342,26.2688199 C8.5637988,24.3728282 7.93571693,22.3940087 7.57282844,20.3295346 C7.01104491,17.1300663 6.38865828,13.8696785 6.09323638,10.617206 C4.33910493,8.13251552 2.49604024,5.34153202 0.585070868,2.20990889 C-0.8575752,-0.152094821 -0.333905922,17.9979199 10.4,27.6 C10.1044321,27.1666385 9.82960061,26.7249378 9.58368342,26.2688199" id="Fill-49" fill="#39876C"></path>
                <path d="M5.05387775,23.3094824 C2.41950965,21.6736942 5.55405113,41.2244052 5.55405113,41.2244052 C5.94711468,42.736268 6.72257293,44 8.16413352,44 L29.2397802,44 C30.6814812,44 31.4441649,42.9148829 31.851126,41.2244052 C31.851126,41.2244052 35.2657253,22.2418491 32.5524637,23.2378685 C27.7816548,24.9890501 9.98303512,26.3691546 5.05387775,23.3094824" id="Fill-51" fill="#AFB0B2"></path>
                <path d="M32.5450874,23.2378688 C31.6693106,23.5569161 30.3555747,23.8635148 28.7678669,24.1338867 C28.2023935,25.8702536 27.5800901,27.5908151 26.9809711,29.328301 C25.9399347,32.3447734 24.3424725,35.288093 21.9739874,37.4938692 C17.5870452,41.5802201 11.4287578,42.701851 5.6,41.9855682 C6.04629983,43.137831 6.78565623,44 7.98516655,44 L29.2090775,44 C30.6609303,44 31.4289844,42.9150154 31.8388112,41.2245264 C31.8388112,41.2245264 35.2774546,22.2418426 32.5450874,23.2378688" id="Fill-53" fill="#98999A"></path>
            </g>
            <g id="Group-78" transform="translate(305.000000, 71.000000)">
                <path d="M19.7333953,106.2 C19.7333953,106.2 21.0765066,87.7498741 11.7,69.3" id="Stroke-3" stroke="#103938" stroke-width="0.82431" opacity="0.331612723" stroke-linecap="round" stroke-linejoin="round"></path>
                <path d="M11.266978,65.5560166 C10.4340618,73.4999541 21.7636477,62.1102229 19.5004149,75.0256751 C17.6909936,85.327274 6.67998731,81.0204667 4.56591463,86.4 C4.56591463,86.4 -1.45443156,80.890507 0.330931695,71.8740921 C1.71110612,64.9027397 12.0968554,57.6190369 11.266978,65.5560166" id="Fill-5" fill="#63BE7A"></path>
                <path d="M0.173249808,77.4 C0.560043339,74.8158022 1.57046861,72.0988985 3.73139567,70.4542299 C4.93939721,69.5366132 6.61372939,68.7509639 8.19079325,69.0249933 C9.09229828,69.1808428 9.91046666,69.5309504 10.6526442,70.0570966 C11.4639734,70.6369161 13.3708376,71.5208024 14.9757648,71.6756671 C16.8871885,71.8613079 18.0430096,71.4188723 19.779401,72.6555744 C20.3077909,63.5345579 10.4885039,72.8692829 11.267157,65.5244098 C12.0972306,57.6600382 1.708772,64.8771293 0.328524487,71.7842448 C-0.0841059403,73.8511598 -0.0749870358,75.7304645 0.173249808,77.4" id="Fill-7" fill="#54A86A"></path>
                <path d="M36.2543287,109.8 C36.2543287,109.8 31.1828753,76.4701505 42.3,28.8" id="Stroke-9" stroke="#103938" stroke-width="0.82431" opacity="0.331612723" stroke-linecap="round" stroke-linejoin="round"></path>
                <path d="M38.91602,25.7172762 C44.6460043,31.7158141 28.4180853,29.6007684 38.45936,38.7691969 C46.46515,46.0827204 52.4137216,35.4975454 57.5174221,38.5679705 C57.5174221,38.5679705 58.761496,30.1873601 51.5920833,23.9169497 C46.0484603,19.0694068 33.1897829,19.7248593 38.91602,25.7172762" id="Fill-11" fill="#63BE7A"></path>
                <path d="M55.8,28.3935778 C53.7867339,26.5164081 51.1772855,24.9248123 48.3441408,24.9434806 C46.7621611,24.9543283 44.8928276,25.3683097 43.7973552,26.5910811 C43.1702388,27.2898797 42.7397194,28.0941288 42.4891796,28.9947464 C42.2163981,29.9851736 41.2556547,31.9165822 40.0604777,33.058626 C38.6372584,34.4186343 37.4088465,34.7872065 36.8218676,36.9 C30.3835067,29.7485407 44.4753465,31.1991154 39.002842,25.6629656 C33.1427677,19.7355391 46.301986,19.086943 51.975178,23.8821645 C53.6709232,25.3170981 54.9031699,26.8642937 55.8,28.3935778" id="Fill-13" fill="#54A86A"></path>
                <path d="M33.5001456,98.1 C33.5001456,98.1 32.2496725,27.0902386 36,9.9" id="Stroke-15" stroke="#103938" stroke-width="0.82431" opacity="0.443103609" stroke-linecap="round" stroke-linejoin="round"></path>
                <g id="Group-19" transform="translate(18.000000, 0.000000)">
                    <mask id="mask-2" fill="white">
                        <use xlink:href="#path-1"></use>
                    </mask>
                    <g id="Clip-18"></g>
                    <path d="M17.5356928,4.81153307 C13.02268,12.4866495 29.6059218,6.08064879 21.3594235,18.1472766 C14.7793187,27.7704431 5.79351383,18.4087716 1.19201555,22.9030759 C1.19201555,22.9030759 -2.25942238,14.5863816 3.704049,6.25614879 C8.31032348,-0.185202643 22.0446835,-2.85581121 17.5356928,4.81153307" id="Fill-17" fill="#63BE7A" mask="url(#mask-2)"></path>
                </g>
                <g id="Group-22" transform="translate(18.900000, 0.000000)">
                    <mask id="mask-4" fill="white">
                        <use xlink:href="#path-3"></use>
                    </mask>
                    <g id="Clip-21"></g>
                    <path d="M0.167477143,12.2067837 C1.75399714,9.6807717 4.02897857,7.3053252 6.94654071,6.5868687 C8.57618357,6.1869852 10.605465,6.1418412 12.0470721,7.1598897 C12.8716714,7.7421447 13.5210214,8.4875337 14.0086607,9.3832317 C14.5512064,10.3671657 16.0329279,12.1777992 17.5567693,13.0845267 C19.37169,14.1625962 20.7270514,14.2367247 21.8788329,16.3369467 C26.6559429,7.0357437 12.5367171,12.2498757 16.7371843,4.9226967 C21.2342464,-2.9215863 7.53622071,-0.1893483 2.94188143,6.4003932 C1.56395571,8.3733912 0.696233571,10.3420287 0.167477143,12.2067837" id="Fill-20" fill="#54A86A" mask="url(#mask-4)"></path>
                </g>
                <path d="M27.9,97.2 C27.9,97.2 17.8355936,71.9065071 18.9926304,50.4" id="Stroke-23" stroke="#103938" stroke-width="0.65988" opacity="0.331612723" stroke-linecap="round" stroke-linejoin="round"></path>
                <path d="M20.5637178,47.9581563 C16.4079242,53.3107243 29.3619514,50.2344733 21.9759762,58.5245336 C16.0887912,65.1391334 10.4311801,57.0359833 6.55037077,59.9566484 C6.55037077,59.9566484 4.87902174,53.2509235 10.1728463,47.5556005 C14.2655701,43.1528571 24.7134567,42.6097304 20.5637178,47.9581563" id="Fill-25" fill="#439B7D"></path>
                <path d="M8.1,51.3938578 C9.5687231,49.727036 11.5362724,48.2448832 13.8191538,48.0336885 C15.0941031,47.9152072 16.6319577,48.0988658 17.6139334,48.9908858 C18.1728962,49.5021995 18.5876852,50.112037 18.8636972,50.8135775 C19.1669507,51.5863583 20.0993264,53.0586587 21.1545455,53.879691 C22.4122762,54.8545721 23.4263761,55.0518724 24.0747731,56.7 C28.6695763,50.4523233 17.448172,52.7398455 21.3963772,47.8649348 C25.6239354,42.6456957 14.9805116,43.1757036 10.8115481,47.472355 C9.56152726,48.7579653 8.69725503,50.0971321 8.1,51.3938578" id="Fill-27" fill="#388B6F"></path>
                <path d="M43.5991123,104.4 C43.5991123,104.4 49.5561358,70.8609078 42.3,45" id="Stroke-29" stroke="#103938" stroke-width="0.82431" opacity="0.331612723" stroke-linecap="round" stroke-linejoin="round"></path>
                <path d="M41.2854327,47.6414734 C45.4643079,43.5208949 43.9717986,55.2058021 50.363315,47.988676 C55.4584934,42.230412 48.1054615,37.9317743 50.2485259,34.2610561 C50.2485259,34.2610561 44.4211589,33.3564954 40.0511361,38.5107849 C36.6700074,42.4960996 37.1105764,51.7569573 41.2854327,47.6414734" id="Fill-31" fill="#439B7D"></path>
                <path d="M43.3745234,36 C42.0185256,37.3980965 40.8633207,39.2109658 40.8733861,41.1801299 C40.8803545,42.2792276 41.175608,43.5809297 42.057755,44.3437794 C42.5620603,44.7794419 43.1427598,45.0802025 43.7918528,45.2551219 C44.5088232,45.4479107 45.9030182,46.118393 46.7265791,46.9512105 C47.7065418,47.9410779 47.9708246,48.7945334 49.5,49.2065377 C44.3222251,53.6749094 45.3889055,43.8789218 41.3813046,47.6768112 C37.0916128,51.7429943 36.6389253,42.592824 40.1130569,38.6555024 C41.1505734,37.4766214 42.2696458,36.6224109 43.3745234,36" id="Fill-33" fill="#388B6F"></path>
                <path d="M33.3,105.3 C33.3,105.3 23.9082458,72.8161701 29.896288,24.3" id="Stroke-35" stroke="#103938" stroke-width="0.82431" opacity="0.331612723" stroke-linecap="round" stroke-linejoin="round"></path>
                <path d="M26.82543,18.1965654 C25.3186552,26.4926089 37.9078276,15.4158073 34.5179656,28.8314904 C31.8143651,39.5320583 20.8423185,34.1084688 18.2289821,39.6 C18.2289821,39.6 12.4892023,33.3143678 15.0646532,23.9644612 C17.0570744,16.7368398 28.334239,9.90741833 26.82543,18.1965654" id="Fill-37" fill="#439B7D"></path>
                <path d="M14.4396374,29.7 C15.0456931,27.0244598 16.31223,24.2575105 18.6736346,22.7070821 C19.9900191,21.8425994 21.7763956,21.1531284 23.3748262,21.5650986 C24.289632,21.8013016 25.1004191,22.232158 25.818632,22.8430625 C26.6075471,23.5156619 28.4961621,24.5929288 30.1342674,24.8830203 C32.0834117,25.2282594 33.3092566,24.8565797 34.9923773,26.289662 C36.2886702,16.7785886 25.4193422,25.7741956 26.8249947,18.1429253 C28.3341573,9.97075518 17.0543494,16.7040512 15.0614612,23.8296759 C14.4645612,25.9630572 14.3175615,27.9304921 14.4396374,29.7" id="Fill-39" fill="#388B6F"></path>
                <path d="M36.9,102.6 C36.9,102.6 40.95,96.7810454 36.9,57.6" id="Stroke-41" stroke="#103938" stroke-width="0.82431" opacity="0.331612723" stroke-linecap="round" stroke-linejoin="round"></path>
                <path d="M37.0425042,51.7018955 C39.4226899,59.7773426 25.9599433,50.195654 30.7317639,63.1449867 C34.539862,73.4743025 44.6124057,66.8378972 47.761429,72 C47.761429,72 52.6509771,65.1004177 49.1179084,56.1005293 C46.3867803,49.1426903 34.6653052,43.6343692 37.0425042,51.7018955" id="Fill-43" fill="#439B7D"></path>
                <path d="M50.4,62.1 C49.5083951,59.4430618 47.9673988,56.7688222 45.4949271,55.4606242 C44.1166525,54.7303471 42.3012971,54.2319614 40.7897054,54.8351889 C39.926259,55.1801854 39.1844178,55.7129159 38.5557093,56.4178863 C37.860716,57.1936121 36.1435418,58.5080076 34.5803676,58.9911577 C32.7221513,59.5670127 31.4886566,59.3281491 30.0102072,60.9823765 C27.6847581,51.4399684 39.2691427,59.359395 37.0478554,51.7444227 C34.6678335,43.5910389 46.4032278,49.1582398 49.1375991,56.1898684 C49.9551943,58.2952253 50.3182654,60.2823124 50.4,62.1" id="Fill-45" fill="#388B6F"></path>
                <path d="M28.8,96.3 C28.8,96.3 21.7135679,76.1299634 25.326167,48.6" id="Stroke-47" stroke="#103938" stroke-width="0.87426" opacity="0.331612723" stroke-linecap="round" stroke-linejoin="round"></path>
                <path d="M22.6400284,49.9539308 C26.493816,45.5392285 25.9883891,57.1770043 31.7999316,49.5181236 C36.4360281,43.4099286 28.6744149,39.8070095 30.5178972,36.0061306 C30.5178972,36.0061306 24.5784486,35.6156276 20.6203035,41.0678958 C17.562458,45.2824223 18.7929334,54.3676483 22.6400284,49.9539308" id="Fill-49" fill="#63BE7A"></path>
                <path d="M23.5408395,37.8 C22.3443509,39.3455945 21.3797969,41.2961978 21.5562636,43.3071108 C21.6568914,44.4307896 22.0567027,45.7348928 22.9751151,46.4396839 C23.5005884,46.841917 24.0881564,47.0982964 24.7353647,47.2224486 C25.4449132,47.3584609 26.853211,47.9232022 27.7227822,48.7019295 C28.7592482,49.6315573 29.0871474,50.4811926 30.6,50.7708812 C25.9664595,55.7793643 26.1620701,45.6788729 22.6032833,49.9005538 C18.7941542,54.4240357 17.5755765,45.1128699 20.6032451,40.7935326 C21.5093858,39.5002801 22.5227811,38.531287 23.5408395,37.8" id="Fill-51" fill="#54A86A"></path>
                <path d="M32.4,103.5 C32.4,103.5 33.562086,89.0155748 33.2452717,72" id="Stroke-53" stroke="#103938" stroke-width="0.82431" opacity="0.331612723" stroke-linecap="round" stroke-linejoin="round"></path>
                <path d="M35.5364752,68.7365225 C32.6450622,76.2522357 46.5430621,68.0740238 40.9660317,80.0612204 C36.51304,89.6207853 27.0559565,82.6092137 23.6065065,87.3 C23.6065065,87.3 19.2639917,80.3978248 23.3557495,72.0834412 C26.5171887,65.6525122 38.4258327,61.2279494 35.5364752,68.7365225" id="Fill-55" fill="#439B7D"></path>
                <path d="M22.5,77.0507697 C23.5155943,74.7080367 25.1473668,72.394692 27.5688262,71.3768791 C28.9205627,70.8077267 30.6689963,70.479558 32.0573129,71.1253647 C32.8529318,71.494677 33.519037,72.0253797 34.0684812,72.7037584 C34.6747729,73.4519341 36.2126233,74.754813 37.6590233,75.2953118 C39.3775502,75.9391593 40.5602269,75.8061775 41.8511611,77.4 C44.6683291,68.9288382 33.1994548,75.3163734 35.7966474,68.5805875 C38.5762466,61.3694468 27.1197304,65.6187422 24.0786324,71.7949269 C23.1670939,73.6402638 22.6950119,75.414824 22.5,77.0507697" id="Fill-57" fill="#388B6F"></path>
                <path d="M42.3841933,110.7 C42.3841933,110.7 38.5903529,92.4173638 45.9,72.9" id="Stroke-59" stroke="#103938" stroke-width="0.82431" opacity="0.331612723" stroke-linecap="round" stroke-linejoin="round"></path>
                <g id="Group-63" transform="translate(39.600000, 63.900000)">
                    <mask id="mask-6" fill="white">
                        <use xlink:href="#path-5"></use>
                    </mask>
                    <g id="Clip-62"></g>
                    <path d="M2.6440344,6.19667446 C9.9669024,11.2951883 -7.8563016,12.3085606 4.7074104,19.8517791 C14.7322224,25.8654683 19.0399104,13.6910437 25.1163864,15.8690714 C25.1163864,15.8690714 24.8041584,6.91720062 15.8878944,1.81868677 C8.9904024,-2.12339631 -4.6707696,1.10314523 2.6440344,6.19667446" id="Fill-61" fill="#63BE7A" mask="url(#mask-6)"></path>
                </g>
                <path d="M60.3,69.8242245 C57.8180376,68.1947491 54.7684888,66.9944475 51.802579,67.5775391 C50.1481894,67.9053838 48.2675713,68.7260217 47.3641692,70.2641726 C46.8467158,71.1458645 46.5552389,72.0988716 46.4698365,73.1229374 C46.3781359,74.2503846 45.7563856,76.5291362 44.7287847,78.0021286 C43.5066978,79.7567905 42.2951918,80.3981142 42.0994463,82.8 C33.9325506,76.3498221 48.9890837,75.1130933 42.157389,70.2149189 C34.84477,64.9722254 48.5018613,61.651451 55.3972929,65.7087216 C57.4580372,66.9231323 59.0562476,68.3491798 60.3,69.8242245" id="Fill-64" fill="#54A86A"></path>
                <path d="M26.1,104.4 C26.1,104.4 17.5764223,77.7400857 20.3578923,61.2" id="Stroke-66" stroke="#103938" stroke-width="0.82431" opacity="0.331612723" stroke-linecap="round" stroke-linejoin="round"></path>
                <path d="M20.2169006,58.2322946 C20.7866282,63.8220731 13.0579773,55.8068924 14.6051957,64.8953689 C15.8366704,72.1464575 23.3433334,69.1154582 24.7851385,72.9 C24.7851385,72.9 28.8922865,69.0222701 27.6742054,62.6789491 C26.7334233,57.7721313 19.6501494,52.646535 20.2169006,58.2322946" id="Fill-68" fill="#63BE7A"></path>
                <path d="M27.7809962,66.6 C27.5165666,64.7745961 26.8294464,62.8573229 25.3547426,61.6967235 C24.5309426,61.0483956 23.3906208,60.495432 22.3160343,60.687409 C21.7006028,60.7977521 21.1404883,61.0453999 20.6386673,61.4178701 C20.0835139,61.8265389 18.7831948,62.4496527 17.6880195,62.5589972 C16.3877004,62.6895615 15.5981323,62.3775053 14.4139043,63.2502641 C14.0554607,56.8121705 20.7510375,63.4022978 20.2182093,58.2174219 C19.6513972,52.6658175 26.7354325,57.7600723 27.6763158,62.6368864 C27.9573653,64.0948129 27.9514119,65.4209269 27.7809962,66.6" id="Fill-70" fill="#54A86A"></path>
                <path d="M12.3511624,89.1 C12.3511624,89.1 7.74234267,106.836525 14.4133147,121.435094 C17.2006001,127.533515 26.7829499,128.691026 31.5663059,128.7 C36.5080563,128.710917 43.8342963,126.848035 46.549699,123.510914 C56.0591571,111.834047 50.6896413,89.2295474 50.6896413,89.2295474 L12.3511624,89.1 Z" id="Fill-72" fill="#D2D3D6"></path>
                <path d="M51.5715203,89.1174947 L46.1146099,89.1 C44.3488161,105.476758 33.7660497,123.234095 16.2,122.683512 C20.0067432,126.919471 27.9780848,127.792205 32.2187466,127.8 C37.2197872,127.8107 44.6339262,125.985256 47.3819077,122.714753 C57.0054586,111.270991 51.5715203,89.1174947 51.5715203,89.1174947" id="Fill-74" fill="#BFC3D1"></path>
                <path d="M44.1,127.229685 C44.1,128.540141 43.2644969,129.6 42.2333427,129.6 L20.765898,129.6 C19.737528,129.6 18.9,128.540141 18.9,127.229685 L18.9,126.57135 C18.9,125.261671 19.737528,124.2 20.765898,124.2 L42.2333427,124.2 C43.2644969,124.2 44.1,125.261671 44.1,126.57135 L44.1,127.229685 Z" id="Fill-76" fill="#999FB4"></path>
            </g>
        </g>
    </g>
</svg>